<?xml version="1.0" encoding="utf-8"?>
<!-- Generator: Adobe Illustrator 19.0.0, SVG Export Plug-In . SVG Version: 6.00 Build 0)  -->
<svg version="1.1" id="Layer_1" xmlns="http://www.w3.org/2000/svg" xmlns:xlink="http://www.w3.org/1999/xlink" x="0px" y="0px"
	 viewBox="0 0 178.3 116.7" style="enable-background:new 0 0 178.3 116.7;" xml:space="preserve">
<style type="text/css">
	.st0{fill:#14499E;}
	.st1{fill:#378F43;}
	.st2{fill:#002E6D;}
	.st3{fill:url(#XMLID_92_);}
	.st4{clip-path:url(#XMLID_93_);fill-rule:evenodd;clip-rule:evenodd;fill:#14499E;}
	.st5{clip-path:url(#XMLID_93_);fill-rule:evenodd;clip-rule:evenodd;fill:#FFFFFF;}
</style>
<g id="XMLID_1_">
	<path id="XMLID_2151_" class="st0" d="M12.2,77.5c0,0.6,0.2,0.8,0.7,0.9c0.4,0,1,0.1,2,0.1l4.8,0l0,0.6l-5.9,4.3v0l2.7,0
		c1,0,1.6-0.1,2-0.1c0.5-0.1,0.7-0.3,0.7-1.1l0.4,0l0,2.8l-0.4,0c0-0.6-0.2-0.9-0.7-0.9c-0.4,0-1-0.1-2-0.1L14,84
		c-0.8,0-1,0-1.3,0.2c-0.3,0.2-0.4,0.5-0.5,0.9l-0.4,0l0-2.1l5.2-4v0l-2.1,0c-1.1,0-1.7,0.1-2,0.1c-0.4,0.1-0.6,0.3-0.7,1.1l-0.4,0
		l0-2.7L12.2,77.5z"/>
	<path id="XMLID_2150_" class="st0" d="M18.4,70.8c0.5,0.1,1.5,0.4,1.8,0.6L19.7,77l-0.4,0c0-0.9,0-1-1-1.1l-4.7-0.5
		c-1-0.1-1,0-1.2,0.8l-0.4,0l0.5-5.2c0.2,0,1,0,1.7,0l0,0.4c-0.4,0.1-0.8,0.2-1,0.3c-0.2,0.1-0.4,0.5-0.4,1.2l0,0.4
		c0,0.4,0,0.4,0.4,0.5l2.5,0.3l0.1-0.7c0.1-1,0.1-1.1-0.8-1.3l0-0.4l2.4,0.2l0,0.4c-0.9,0.1-0.9,0.2-1,1.2l-0.1,0.7l2.2,0.2
		c0.6,0.1,0.8,0,1-0.2c0.1-0.2,0.2-0.5,0.2-0.9c0.1-0.6,0-1-0.3-1.3c-0.2-0.2-0.6-0.5-1.1-0.7L18.4,70.8z"/>
	<path id="XMLID_2149_" class="st0" d="M15.2,59.1c-0.1,0.7,0,0.9,0.9,1.5c0.7,0.4,2.6,1.5,5.7,3.2l-0.1,0.6
		c-1.8,0.2-3.6,0.4-5.4,0.6l0,0c1.6,0.9,3.2,1.8,4.7,2.7l-0.1,0.6c-2.2,0.1-4.3,0.2-6.6,0.3c-1,0-1.1,0.2-1.4,0.8l-0.4-0.1l0.7-3.2
		l0.4,0.1c-0.1,0.8,0,0.9,0.7,0.9c1.4,0,2.9-0.1,4.2-0.1l0,0c-1.6-0.9-3.2-1.8-4.8-2.6l0.1-0.5c1.9-0.2,3.7-0.4,5.6-0.6l0,0
		c-1.3-0.7-2.9-1.5-3.7-1.9c-0.7-0.3-0.9-0.3-1.2,0.6l-0.4-0.1l0.6-2.6L15.2,59.1z"/>
	<path id="XMLID_2148_" class="st0" d="M19.7,47.7c-0.2,0.7-0.2,0.9,0.4,1.6c0.5,0.7,0.9,1.2,1.8,2.1c0.2,0.2,0.3,0.3,0.7,0.5
		l1.4,0.6c0.9,0.4,1.1,0.4,1.5-0.5l0.4,0.2l-1.4,3.3l-0.4-0.2c0.3-0.9,0.2-1-0.7-1.4l-1.3-0.5c-0.3-0.1-0.4-0.1-0.6-0.1
		c-0.7,0-1.6,0.1-3.2,0.2c-0.8,0.1-1,0.2-1.3,0.7l-0.4-0.2l1.2-2.9l0.4,0.2c-0.2,0.7-0.1,0.7,0.4,0.7c0.9,0,1.9-0.1,2.9-0.1
		c-0.5-0.5-1.3-1.5-1.9-2.1c-0.4-0.3-0.5-0.4-0.9,0.4l-0.4-0.2l1-2.4L19.7,47.7z"/>
	<path id="XMLID_2145_" class="st0" d="M26.4,42.5c2.2,1.2,2.9,3.3,1.9,5.1c-1,1.8-3.2,2.2-5.2,1.1c-1.7-1-3-3-1.8-5.1
		C22.2,41.9,24.3,41.4,26.4,42.5 M23.8,47c1.8,1,3.6,1.3,4.3,0.2c0.4-0.8-0.2-1.9-2.2-3c-2.1-1.1-3.7-1.3-4.2-0.3
		C21.1,44.9,22.1,46.1,23.8,47"/>
	<path id="XMLID_2142_" class="st0" d="M34.4,38.2c-0.1,0.1-0.2,0.2-0.3,0.4c-0.9,1.1-1.4,1.3-2.3,1.2c-0.6,0-1.3-0.1-2-0.3
		c-0.4-0.1-0.6,0-0.9,0.2l-0.1,0.2l1.5,1c0.8,0.6,1,0.6,1.5-0.1l0.3,0.2l-1.9,2.8l-0.3-0.2c0.4-0.7,0.4-0.9-0.4-1.4l-3.8-2.7
		c-0.8-0.6-0.9-0.5-1.4,0.1l-0.3-0.2l1.9-2.7c0.5-0.7,0.9-1.1,1.4-1.3c0.5-0.2,1.1-0.1,1.7,0.3c0.8,0.6,1,1.4,0.8,2.3
		c0.4,0.1,1.3,0.2,2,0.2c0.8,0.1,1.2,0.1,1.5,0c0.4-0.1,0.7-0.1,0.9-0.3L34.4,38.2z M28.7,39.4c0.3-0.4,0.4-0.7,0.3-1
		c0-0.5-0.3-0.9-0.9-1.3c-1-0.7-1.8-0.4-2.2,0.1c-0.1,0.2-0.2,0.3-0.2,0.4c0,0.1,0.1,0.2,0.3,0.3l2.4,1.7L28.7,39.4z"/>
	<path id="XMLID_2141_" class="st0" d="M37.8,34.1c-0.6-0.1-2.4-0.4-3.9-0.7c-0.4-0.1-0.5,0-0.6,0.2l1.7,1.4
		c0.8,0.7,0.9,0.7,1.5,0.1l0.3,0.3l-2.2,2.5l-0.3-0.3c0.5-0.6,0.5-0.8-0.3-1.5l-3.5-3.1c-0.8-0.7-0.9-0.7-1.5-0.1l-0.3-0.3l2.2-2.5
		l0.3,0.3c-0.5,0.6-0.4,0.8,0.3,1.4l1.5,1.3c0.1-0.2,0.1-0.5,0.1-0.9c-0.1-0.8-0.3-1.8-0.5-2.5c-0.1-0.4-0.3-0.6-0.6-0.2l-0.1,0.1
		l-0.3-0.3l1.9-2.1l0.3,0.3c-0.4,0.6-0.6,1-0.5,1.9c0.1,0.9,0.2,1.6,0.3,2.3c1.2,0.2,2.7,0.5,4.2,0.6c0.7,0.1,1,0,1.4-0.3l0.3,0.3
		L37.8,34.1z"/>
	<path id="XMLID_2140_" class="st0" d="M41.7,22.4c-0.7-0.4-1.5-0.8-2.2-0.2c-0.4,0.4-0.5,1,0,1.6c0.4,0.5,1,0.5,2.1,0.3
		c1.3-0.3,2.4-0.3,3.1,0.6c0.9,1,0.7,2.5-0.6,3.6c-0.3,0.3-0.6,0.4-0.9,0.6c-0.3,0.1-0.5,0.2-0.7,0.3c-0.3-0.2-1-0.8-1.5-1.3
		l0.2-0.4c0.7,0.4,1.9,1,2.8,0.3c0.5-0.4,0.5-1.1,0.1-1.7c-0.4-0.5-1.1-0.6-2.1-0.4c-1.2,0.2-2.3,0.3-3.1-0.6
		c-0.8-1-0.8-2.3,0.5-3.4c0.5-0.4,1.1-0.7,1.4-0.8c0.3,0.3,0.7,0.7,1.3,1.1L41.7,22.4z"/>
	<path id="XMLID_2139_" class="st0" d="M48,17.8c-0.5-0.4-0.8-0.6-1-0.7c-0.3-0.1-0.6,0.1-1,0.3l-0.4,0.3l3.3,4.7
		c0.6,0.8,0.7,0.8,1.5,0.4l0.2,0.3l-2.9,2.1l-0.2-0.3c0.7-0.6,0.7-0.7,0.2-1.5l-3.3-4.7l-0.4,0.3c-0.5,0.4-0.7,0.6-0.7,0.9
		c0,0.3,0.1,0.7,0.3,1.2l-0.3,0.2c-0.4-0.7-0.8-1.4-1.2-1.9l0.2-0.2c0.3,0.1,0.4,0.1,0.7-0.1l3.4-2.4c0.2-0.2,0.3-0.3,0.3-0.6
		l0.2-0.2c0.3,0.4,0.9,1.2,1.4,1.7L48,17.8z"/>
	<path id="XMLID_2136_" class="st0" d="M54.9,20.5l-0.2-0.3c0.5-0.4,0.5-0.6,0-1c-0.3-0.3-0.6-0.6-1-0.9l-1.8,1
		c0.1,0.3,0.2,0.7,0.3,1.2c0.2,0.6,0.3,0.8,1,0.4l0.2,0.3l-2.2,1.3l-0.2-0.3c0.6-0.4,0.7-0.6,0.5-1.6l-1.2-6.6l0.4-0.4
		c1.7,1.5,3.3,2.9,5,4.4c0.9,0.7,1.1,0.8,1.7,0.5l0.2,0.3L54.9,20.5z M51.2,16L51.2,16c0.1,1,0.4,1.8,0.5,2.7l1.5-0.8L51.2,16z"/>
	<path id="XMLID_2135_" class="st0" d="M60.3,11.3c-0.4-0.5-0.6-0.8-0.9-0.9c-0.3-0.1-0.6,0-1,0.2l-0.5,0.2l2.4,5.2
		c0.4,0.9,0.5,1,1.4,0.6l0.2,0.4l-3.3,1.5l-0.2-0.4c0.8-0.4,0.8-0.6,0.4-1.5l-2.4-5.2l-0.4,0.2c-0.6,0.3-0.8,0.5-0.9,0.7
		c-0.1,0.3,0,0.7,0.1,1.2l-0.4,0.2c-0.3-0.7-0.6-1.5-0.8-2.1l0.3-0.1c0.3,0.1,0.4,0.1,0.7,0l3.8-1.7c0.3-0.1,0.4-0.2,0.4-0.5
		l0.3-0.1c0.2,0.4,0.7,1.3,1,2L60.3,11.3z"/>
	<path id="XMLID_2134_" class="st0" d="M68.7,12.5c0.1,0.5,0.2,1.6,0.3,1.9l-5.3,1.9l-0.1-0.4c0.8-0.4,0.9-0.5,0.6-1.4L62.5,10
		c-0.3-0.9-0.4-1-1.2-0.8l-0.1-0.4l4.9-1.7c0.1,0.2,0.4,1,0.7,1.6L66.4,9c-0.3-0.4-0.5-0.6-0.7-0.8C65.4,8,65.1,8,64.4,8.3L64,8.4
		c-0.4,0.1-0.4,0.2-0.3,0.6l0.8,2.4l0.7-0.2c0.9-0.3,1-0.4,0.9-1.3l0.4-0.1l0.8,2.2l-0.4,0.1c-0.5-0.8-0.6-0.8-1.5-0.5l-0.7,0.2
		l0.7,2.1c0.2,0.5,0.3,0.8,0.5,0.8c0.2,0,0.5,0,0.9-0.2c0.6-0.2,0.9-0.4,1.1-0.8c0.1-0.3,0.2-0.7,0.2-1.3L68.7,12.5z"/>
	<path id="XMLID_2133_" class="st0" d="M79.4,4.6c-0.6,0.1-0.8,0.4-0.8,0.8c0,0.4,0,0.8,0.2,1.8l0.2,1.3c0.2,1.2,0.2,2.2-0.2,3
		c-0.4,0.6-1.1,1.1-1.9,1.2c-0.7,0.1-1.4,0.1-2-0.3c-0.7-0.4-1.1-1.2-1.3-2.5L73.1,7c-0.2-1-0.3-1.1-1.1-1L72,5.6L75.2,5l0.1,0.4
		c-0.7,0.2-0.8,0.3-0.6,1.3l0.5,2.9c0.3,1.7,1,2.4,2.1,2.2c1.2-0.2,1.6-1.2,1.3-3.2l-0.2-1.4c-0.2-0.9-0.3-1.4-0.4-1.7
		c-0.1-0.4-0.4-0.6-1.2-0.5l-0.1-0.4l2.7-0.5L79.4,4.6z"/>
	<path id="XMLID_2132_" class="st0" d="M88.1,4c-0.6,0.1-0.8,0.3-0.8,0.7c0,0.4-0.1,1,0,2l0.3,4.8l-0.6,0L82.3,6l0,0l0.2,2.7
		c0.1,1,0.2,1.6,0.2,2c0.1,0.5,0.3,0.7,1.1,0.6l0,0.4L81,11.9l0-0.4c0.6-0.1,0.8-0.3,0.9-0.8c0-0.4,0-1,0-2l-0.2-2.5
		c-0.1-0.8-0.1-1-0.3-1.3c-0.2-0.3-0.5-0.4-1-0.4l0-0.4L82.5,4l4.3,4.9l0,0l-0.1-2.1c-0.1-1.1-0.2-1.7-0.2-2
		c-0.1-0.4-0.3-0.6-1.1-0.6l0-0.4L88,3.6L88.1,4z"/>
	<path id="XMLID_2131_" class="st0" d="M89.1,11.5l0-0.4C89.9,11,90,10.9,90,10l0.1-4.7c0-1-0.1-1.1-0.9-1.2l0-0.4l3.3,0.1l0,0.4
		c-0.8,0.1-0.9,0.1-0.9,1.1L91.6,10c0,1,0.1,1.1,0.9,1.2l0,0.4L89.1,11.5z"/>
	<path id="XMLID_2130_" class="st0" d="M98.9,6.1c-0.1-0.4-0.2-0.8-0.3-1c-0.2-0.3-0.5-0.4-1.1-0.5l-0.5-0.1c-0.4,0-0.4,0-0.5,0.4
		l-0.3,2.7l0.9,0.1c1,0.1,1.1,0,1.3-0.8l0.4,0l-0.2,2.3l-0.4,0c-0.1-0.8-0.2-0.9-1.1-1l-0.9-0.1l-0.2,2c-0.1,1,0,1.1,0.9,1.3l0,0.4
		l-3.4-0.3l0-0.4c0.8,0,0.9-0.1,1-1.1l0.5-4.6c0.1-1,0-1.1-0.8-1.3l0-0.4l5.3,0.5c0,0.2,0,1.1,0,1.8L98.9,6.1z"/>
	<path id="XMLID_2129_" class="st0" d="M99.5,12.3l0.1-0.4c0.8,0.1,0.9,0,1.1-1l0.8-4.6c0.2-1,0.1-1.1-0.7-1.3l0.1-0.4l3.3,0.6
		L104,5.6c-0.8-0.1-0.9,0-1.1,1l-0.8,4.6c-0.2,0.9-0.1,1.1,0.7,1.3l-0.1,0.4L99.5,12.3z"/>
	<path id="XMLID_2128_" class="st0" d="M109.8,12.6c-0.2,0.4-0.7,1.4-0.8,1.7l-5.5-1.4l0.1-0.4c0.9,0.1,1,0.1,1.3-0.9l1.2-4.6
		c0.2-1,0.2-1-0.6-1.3l0.1-0.4l5.1,1.3c0,0.2-0.2,1-0.3,1.7l-0.4,0c0-0.5,0-0.8-0.2-1c-0.1-0.3-0.4-0.4-1.1-0.6l-0.4-0.1
		c-0.4-0.1-0.4-0.1-0.5,0.3l-0.6,2.5l0.7,0.2c0.9,0.2,1,0.2,1.4-0.6l0.4,0.1l-0.6,2.3l-0.4-0.1c0-0.9,0-1-1-1.2l-0.7-0.2l-0.5,2.1
		c-0.1,0.6-0.1,0.8,0,1c0.1,0.2,0.5,0.3,0.9,0.4c0.6,0.2,1,0.1,1.3-0.1c0.3-0.2,0.6-0.5,0.9-0.9L109.8,12.6z"/>
	<path id="XMLID_2125_" class="st0" d="M115.5,8.3c1.3,0.5,2.2,1.1,2.6,2.1c0.3,0.7,0.4,1.7,0,2.7c-0.5,1.4-1.4,2.2-2.3,2.6
		c-1,0.4-2.1,0.3-3.4-0.2l-2.6-0.9l0.1-0.4c0.8,0.2,1,0.2,1.3-0.8l1.6-4.3c0.4-1,0.3-1.1-0.4-1.4l0.1-0.4L115.5,8.3z M112.7,13.9
		c-0.3,0.8-0.2,1.1,0.4,1.3c1.1,0.4,2.5-0.3,3.3-2.5c0.4-1.2,0.5-2.1,0.2-2.7c-0.2-0.6-0.7-1-1.3-1.2c-0.3-0.1-0.5-0.1-0.6-0.1
		c-0.1,0-0.2,0.2-0.3,0.5L112.7,13.9z"/>
	<path id="XMLID_2124_" class="st0" d="M127.4,20.6c-0.4,0.4-1,1-1.4,1.3c-0.3-0.1-1.2-0.3-1.8-0.7c-2.5-1.4-2.4-3.7-1.5-5.4
		c1.2-2.1,3.5-2.8,5.7-1.5c0.7,0.4,1.2,0.9,1.5,1.1c-0.3,0.6-0.5,1.1-0.7,1.7l-0.4-0.1c0.3-1.3-0.1-2-0.8-2.4
		c-1.2-0.7-2.8,0.3-3.6,1.9c-1.1,1.9-1,3.7,0.2,4.3c0.7,0.4,1.6,0.2,2.6-0.5L127.4,20.6z"/>
	<path id="XMLID_2121_" class="st0" d="M135,23.5c-1.5,2.1-3.7,2.4-5.3,1.3c-1.7-1.2-1.8-3.4-0.5-5.3c1.2-1.6,3.3-2.6,5.3-1.2
		C136.1,19.4,136.4,21.6,135,23.5 M130.8,20.3c-1.2,1.7-1.7,3.5-0.7,4.2c0.7,0.5,1.9,0,3.2-1.8c1.4-1.9,1.7-3.5,0.8-4.2
		C133.3,17.9,131.9,18.7,130.8,20.3"/>
	<path id="XMLID_2120_" class="st0" d="M143.8,26.8c-0.5-0.4-0.8-0.4-1.1-0.1c-0.3,0.3-0.6,0.5-1.3,1.3l-0.9,1
		c-0.8,0.9-1.6,1.6-2.6,1.7c-0.7,0.1-1.5-0.2-2.1-0.7c-0.5-0.5-1-1.1-1-1.8c-0.1-0.8,0.3-1.6,1.2-2.6l2-2.2c0.7-0.8,0.7-0.9,0.2-1.5
		l0.3-0.3l2.4,2.2l-0.3,0.3c-0.6-0.5-0.7-0.4-1.4,0.3l-2,2.2c-1.2,1.3-1.3,2.3-0.5,3.1c0.9,0.8,1.9,0.5,3.3-0.9l1-1
		c0.6-0.7,0.9-1.1,1.1-1.4c0.2-0.3,0.2-0.6-0.4-1.2l0.3-0.3l2,1.9L143.8,26.8z"/>
	<path id="XMLID_2117_" class="st0" d="M143.6,37.9c-0.1-0.1-0.2-0.2-0.3-0.3c-0.9-1.1-0.9-1.6-0.6-2.5c0.2-0.5,0.4-1.2,0.7-1.9
		c0.2-0.4,0.2-0.6,0-0.9l-0.1-0.2l-1.4,1.2c-0.7,0.7-0.8,0.8-0.3,1.5l-0.3,0.3l-2.2-2.5l0.3-0.3c0.6,0.6,0.8,0.6,1.5-0.1l3.5-3.1
		c0.7-0.6,0.7-0.8,0.3-1.4l0.3-0.3l2.2,2.4c0.6,0.7,0.8,1.1,0.9,1.7c0.1,0.6-0.1,1.1-0.7,1.6c-0.8,0.7-1.6,0.6-2.4,0.3
		c-0.2,0.4-0.5,1.2-0.7,1.8c-0.2,0.7-0.3,1.1-0.4,1.5c0,0.4,0,0.7,0.1,0.9L143.6,37.9z M143.8,32.1c0.3,0.3,0.6,0.5,0.9,0.6
		c0.5,0.1,0.9-0.1,1.4-0.6c1-0.8,0.8-1.7,0.4-2.1c-0.2-0.2-0.3-0.3-0.4-0.3c-0.1,0-0.2,0.1-0.4,0.2l-2.2,1.9L143.8,32.1z"/>
	<path id="XMLID_2116_" class="st0" d="M151.8,39.1c0.4-0.5,0.6-0.8,0.7-1.1c0.1-0.3-0.1-0.6-0.4-1l-0.3-0.4l-4.7,3.4
		c-0.8,0.6-0.8,0.7-0.3,1.5l-0.3,0.2l-2.1-2.9l0.3-0.2c0.6,0.7,0.7,0.7,1.5,0.1l4.7-3.4l-0.3-0.4c-0.4-0.5-0.6-0.7-0.9-0.7
		c-0.3,0-0.7,0.1-1.2,0.3l-0.2-0.3c0.7-0.4,1.4-0.9,1.9-1.2l0.2,0.2c-0.1,0.3-0.1,0.4,0.1,0.7l2.5,3.4c0.2,0.2,0.3,0.3,0.6,0.3
		l0.2,0.2c-0.4,0.3-1.1,0.9-1.7,1.4L151.8,39.1z"/>
	<path id="XMLID_2115_" class="st0" d="M156.7,47.6c0.5-0.6,1.1-1.3,0.7-2.1c-0.3-0.5-0.9-0.7-1.5-0.4c-0.6,0.3-0.8,0.9-0.8,1.9
		c0,1.3-0.2,2.4-1.3,2.9c-1.2,0.6-2.6,0.2-3.4-1.4c-0.2-0.4-0.3-0.7-0.4-1c-0.1-0.3-0.1-0.6-0.1-0.8c0.2-0.2,1-0.8,1.6-1.2l0.3,0.3
		c-0.5,0.5-1.4,1.7-0.9,2.7c0.3,0.6,1,0.8,1.6,0.4c0.6-0.3,0.8-0.9,0.9-1.9c0-1.2,0.2-2.3,1.3-2.9c1.1-0.6,2.5-0.2,3.2,1.2
		c0.3,0.6,0.4,1.2,0.5,1.5c-0.4,0.2-0.8,0.6-1.4,1L156.7,47.6z"/>
	<path id="XMLID_2114_" class="st0" d="M161.5,54.8c-0.3-0.6-0.5-0.7-1.4-0.8c-0.9-0.1-1.5-0.2-2.8-0.2c-0.3,0-0.4,0-0.8,0.1
		l-1.4,0.6c-1,0.4-1,0.5-0.7,1.4l-0.4,0.2l-1.4-3.3l0.4-0.2c0.4,0.8,0.5,0.9,1.5,0.5l1.3-0.5c0.3-0.1,0.4-0.2,0.5-0.4
		c0.5-0.5,1.1-1.2,2.1-2.4c0.5-0.6,0.6-0.8,0.4-1.4l0.4-0.2l1.2,2.9l-0.4,0.2c-0.4-0.6-0.5-0.6-0.8-0.2c-0.6,0.7-1.3,1.4-1.9,2.1
		c0.7,0,2,0.1,2.8,0.1c0.5,0,0.6-0.1,0.4-0.9l0.4-0.2l1,2.4L161.5,54.8z"/>
	<path id="XMLID_2113_" class="st0" d="M161.5,59.9c0.6-0.5,1.3-1.1,1.1-2c-0.2-0.5-0.8-0.9-1.4-0.6c-0.7,0.2-0.9,0.7-1.1,1.8
		c-0.3,1.3-0.6,2.3-1.8,2.7c-1.3,0.4-2.6-0.3-3.1-1.9c-0.1-0.4-0.2-0.7-0.2-1.1c0-0.3,0-0.6,0-0.8c0.3-0.2,1.1-0.6,1.8-0.9l0.3,0.4
		c-0.6,0.4-1.7,1.4-1.3,2.5c0.2,0.6,0.8,0.9,1.5,0.7c0.7-0.2,1-0.8,1.2-1.8c0.3-1.2,0.6-2.3,1.8-2.6c1.2-0.4,2.5,0.2,3,1.8
		c0.2,0.6,0.2,1.2,0.2,1.6c-0.4,0.2-0.9,0.4-1.6,0.7L161.5,59.9z"/>
	<path id="XMLID_2112_" class="st0" d="M163.3,67.5c0.6-0.3,0.9-0.5,1.1-0.7c0.2-0.2,0.2-0.5,0-1l-0.1-0.5l-5.6,1.2
		c-1,0.2-1,0.3-0.9,1.3l-0.4,0.1l-0.8-3.5l0.4-0.1c0.3,0.9,0.4,0.9,1.4,0.7l5.6-1.2l-0.1-0.4c-0.1-0.7-0.3-0.9-0.5-1
		c-0.2-0.1-0.7-0.2-1.2-0.2l-0.1-0.4c0.8-0.1,1.6-0.2,2.2-0.4l0.1,0.3c-0.2,0.2-0.2,0.4-0.2,0.7l0.9,4.1c0.1,0.3,0.2,0.4,0.4,0.5
		l0.1,0.3c-0.5,0.1-1.4,0.4-2.1,0.6L163.3,67.5z"/>
	<path id="XMLID_2111_" class="st0" d="M160.4,75.4c-0.5,0-1.6-0.1-1.9-0.2l-0.7-5.6l0.4,0c0.2,0.9,0.3,1,1.3,0.9l4.7-0.6
		c1-0.1,1-0.2,1-1l0.4,0l0.6,5.2c-0.2,0-1,0.2-1.7,0.3l-0.1-0.4c0.4-0.2,0.7-0.3,0.9-0.5c0.2-0.2,0.3-0.5,0.2-1.2l-0.1-0.4
		c0-0.4-0.1-0.4-0.5-0.4l-2.5,0.3l0.1,0.7c0.1,1,0.2,1.1,1,1.1l0.1,0.4l-2.4,0.3l0-0.4c0.8-0.3,0.9-0.4,0.8-1.4l-0.1-0.7l-2.2,0.3
		c-0.6,0.1-0.8,0.2-0.9,0.4c-0.1,0.2-0.1,0.5,0,1c0.1,0.6,0.2,1,0.5,1.2c0.3,0.2,0.7,0.3,1.2,0.5L160.4,75.4z"/>
	<path id="XMLID_2110_" class="st0" d="M158.6,81.8l0.4,0c0.1,0.8,0.1,0.9,1.2,0.9l4.8,0v0l-6.3-2.3l0-0.4l6.1-2.2v-0.1l-3.1-0.1
		c-1,0-1.6-0.1-1.9,0c-0.6,0.1-0.7,0.3-0.7,1l-0.4,0l0-2.7l0.4,0c0.1,0.6,0.2,0.8,0.7,0.9c0.4,0.1,1.1,0.1,2.2,0.2l2.6,0.2
		c1.3,0.1,1.5,0,1.5-0.9l0.4,0l0,2.4l-5.1,2l5.2,2l0,2.3l-0.4,0c-0.1-0.9-0.2-0.9-1.1-0.9l-4.7,0.1c-1.1,0-1.1,0.1-1.2,0.9l-0.4,0
		L158.6,81.8z"/>
	<g id="XMLID_1615_">
		<path id="XMLID_2107_" class="st1" d="M11.3,95.1c0,2.6-1.5,4.1-3.5,4.1c-2.1,0-3.5-1.7-3.5-4c0-2,1.2-4.1,3.6-4.1
			C9.8,91.1,11.3,92.7,11.3,95.1 M6,95C6,97,6.7,98.8,8,98.8c0.9,0,1.6-1.1,1.6-3.3c0-2.4-0.7-3.8-1.8-3.8C6.7,91.6,6,93,6,95"/>
		<path id="XMLID_2106_" class="st1" d="M17.2,93.1c-0.1-0.4-0.2-0.7-0.4-1c-0.2-0.3-0.6-0.3-1.2-0.3H15c-0.4,0-0.4,0-0.4,0.4v2.7
			h0.9c1,0,1.1-0.1,1.2-0.9h0.4v2.4h-0.4c-0.1-0.8-0.3-0.9-1.2-0.9h-0.9v2c0,1,0.1,1.1,1,1.2v0.4h-3.4v-0.4c0.8-0.1,0.9-0.2,0.9-1.2
			v-4.6c0-1-0.1-1.1-0.9-1.2v-0.4h5.3c0,0.2,0.1,1.1,0.1,1.7L17.2,93.1z"/>
		<path id="XMLID_2105_" class="st1" d="M23.5,93.1c-0.1-0.4-0.2-0.7-0.4-1c-0.2-0.3-0.6-0.3-1.2-0.3h-0.5c-0.4,0-0.4,0-0.4,0.4v2.7
			h0.9c1,0,1.1-0.1,1.2-0.9h0.4v2.4H23c-0.1-0.8-0.3-0.9-1.2-0.9h-0.9v2c0,1,0.1,1.1,1,1.2v0.4h-3.4v-0.4c0.8-0.1,0.9-0.2,0.9-1.2
			v-4.6c0-1-0.1-1.1-0.9-1.2v-0.4h5.3c0,0.2,0.1,1.1,0.1,1.7L23.5,93.1z"/>
		<path id="XMLID_2104_" class="st1" d="M24.7,99.1v-0.4c0.8-0.1,0.9-0.2,0.9-1.2v-4.7c0-1-0.1-1.1-0.9-1.2v-0.4h3.3v0.4
			c-0.8,0.1-0.9,0.2-0.9,1.2v4.7c0,1,0.1,1.1,0.9,1.2v0.4H24.7z"/>
		<path id="XMLID_2103_" class="st1" d="M35.4,97.2c-0.1,0.5-0.4,1.4-0.6,1.8c-0.3,0.1-1.2,0.3-2,0.3c-2.8,0-3.9-2-3.9-3.9
			c0-2.5,1.7-4.2,4.2-4.2c0.8,0,1.5,0.2,1.8,0.3c0.1,0.7,0.1,1.2,0.2,1.9l-0.4,0.1c-0.4-1.3-1.1-1.7-1.9-1.7c-1.4,0-2.2,1.6-2.2,3.4
			c0,2.2,1,3.7,2.3,3.7c0.9,0,1.5-0.7,2-1.7L35.4,97.2z"/>
		<path id="XMLID_2102_" class="st1" d="M42.1,97.2c-0.1,0.5-0.3,1.5-0.4,1.9H36v-0.4c0.9-0.1,1-0.1,1-1.1v-4.7c0-1-0.1-1-0.9-1.1
			v-0.4h5.2c0,0.2,0.1,1,0.1,1.7l-0.4,0.1c-0.1-0.4-0.2-0.8-0.4-1c-0.2-0.2-0.5-0.3-1.2-0.3H39c-0.4,0-0.4,0-0.4,0.4v2.5h0.7
			c1,0,1.1,0,1.3-0.9H41v2.4h-0.4c-0.2-0.9-0.3-0.9-1.3-0.9h-0.7v2.2c0,0.6,0.1,0.8,0.3,0.9c0.2,0.1,0.5,0.1,0.9,0.1
			c0.6,0,1-0.1,1.3-0.4c0.2-0.3,0.4-0.6,0.6-1.1L42.1,97.2z"/>
		<path id="XMLID_2101_" class="st1" d="M46.9,93.8c0.2-1,0.5-1.7,1.1-2.3c0.6-0.6,1.4-1,1.9-1c0.5,0,0.8,0.3,0.8,0.6
			c0,0.3-0.2,0.5-0.4,0.6c-0.1,0.1-0.2,0.1-0.3,0c-0.3-0.4-0.6-0.6-0.8-0.6c-0.3,0-0.6,0.3-1,2.6h1.4l-0.3,0.5l-1.2,0.1
			c-0.2,1.2-0.4,2.1-0.7,3.5c-0.4,2-1,2.9-1.7,3.6c-0.5,0.5-1,0.7-1.3,0.7c-0.4,0-0.8-0.3-0.8-0.6c0-0.2,0.2-0.5,0.4-0.6
			c0.1-0.1,0.2-0.1,0.3,0c0.2,0.2,0.6,0.4,0.9,0.4c0.2,0,0.3-0.1,0.4-0.3c0.1-0.2,0.3-0.6,0.6-2.7c0.3-1.7,0.4-2.8,0.7-4h-1l0-0.1
			l0.4-0.4H46.9z"/>
		<path id="XMLID_2098_" class="st1" d="M49.3,97.3c0-1.6,0.9-2.8,1.8-3.3c0.5-0.3,1-0.4,1.5-0.4c1.1,0,1.7,0.7,1.7,1.9
			c0,1.1-0.4,2.2-1.3,2.9c-0.5,0.4-1.3,0.8-2,0.8C49.7,99.2,49.3,98.2,49.3,97.3 M51.8,98.7c0.5-0.2,1.1-1.5,1.1-3.2
			c0-0.9-0.4-1.4-0.8-1.4c-0.1,0-0.2,0-0.4,0.1c-0.4,0.2-1.1,1.2-1.1,3.1c0,0.9,0.4,1.4,0.8,1.4C51.6,98.7,51.7,98.7,51.8,98.7"/>
		<path id="XMLID_2097_" class="st1" d="M55.2,94.8c0.7-0.7,1.5-1.2,1.9-1.2c0.4,0,0.4,0.4,0.2,1.4l-0.1,0.6h0c0.6-1.1,1.2-2,1.8-2
			c0.2,0,0.4,0.1,0.6,0.3c0.1,0.2,0.1,0.4,0,0.7c-0.1,0.2-0.3,0.4-0.4,0.4c-0.1,0.1-0.2,0.1-0.3,0c-0.2-0.1-0.3-0.2-0.5-0.2
			c-0.1,0-0.3,0.1-0.5,0.4c-0.3,0.4-0.6,1-0.8,1.4c-0.2,0.7-0.3,1.6-0.5,2.3c-0.4,0-0.9,0.1-1.2,0.2l-0.1-0.1
			c0.3-1.3,0.6-2.6,0.8-3.9c0.1-0.4,0.1-0.6,0-0.6c-0.1,0-0.5,0.2-0.8,0.5L55.2,94.8z"/>
		<path id="XMLID_2096_" class="st1" d="M66,91.7c-0.8,0.1-0.8,0.2-0.8,1.2V97c0,1.4-0.1,2.5-1.1,3.3c-0.4,0.4-0.9,0.6-1.4,0.7
			l-0.2-0.4c0.6-0.2,0.9-0.7,1-1.3c0.1-0.6,0.1-1.4,0.1-2.5v-4c0-1-0.1-1.1-0.9-1.2v-0.4H66V91.7z"/>
		<path id="XMLID_2095_" class="st1" d="M74.2,91.7c-0.6,0-0.9,0.2-0.9,0.6c-0.1,0.4-0.1,0.8-0.1,1.8v1.3c0,1.2-0.2,2.2-0.8,2.9
			c-0.5,0.6-1.3,0.9-2.1,0.9c-0.7,0-1.4-0.2-2-0.6c-0.6-0.5-0.9-1.3-0.9-2.7v-3c0-1-0.1-1.1-0.9-1.2v-0.4H70v0.4
			c-0.8,0.1-0.9,0.2-0.9,1.2v2.9c0,1.7,0.5,2.6,1.7,2.6c1.2,0,1.8-0.9,1.8-2.9v-1.4c0-1,0-1.4-0.1-1.8c0-0.4-0.3-0.6-1.1-0.7v-0.4
			h2.8V91.7z"/>
		<path id="XMLID_2094_" class="st1" d="M79,93.2c-0.3-0.8-0.6-1.6-1.5-1.6c-0.6,0-1,0.5-1,1.2c0,0.7,0.4,1.1,1.4,1.6
			c1.2,0.6,2,1.3,2,2.5c0,1.3-1.1,2.4-2.8,2.4c-0.4,0-0.8-0.1-1.1-0.1c-0.3-0.1-0.5-0.2-0.7-0.3c-0.1-0.3-0.2-1.2-0.3-1.9l0.4-0.1
			c0.2,0.7,0.8,2,1.9,2c0.7,0,1.1-0.5,1.1-1.2c0-0.7-0.5-1.2-1.3-1.7c-1.1-0.6-2-1.3-2-2.5c0-1.3,0.9-2.3,2.6-2.3
			c0.6,0,1.2,0.2,1.5,0.3c0,0.5,0.1,1,0.2,1.7L79,93.2z"/>
		<path id="XMLID_2093_" class="st1" d="M86.3,93.2c-0.1-0.6-0.3-1-0.4-1.2c-0.2-0.2-0.5-0.3-1-0.3h-0.5v5.7c0,1,0.1,1.1,1,1.2v0.4
			h-3.6v-0.4c0.9-0.1,1-0.2,1-1.2v-5.7h-0.4c-0.7,0-0.9,0.1-1.1,0.3c-0.2,0.2-0.3,0.6-0.4,1.1h-0.4c0-0.8,0.1-1.6,0.1-2.2h0.3
			c0.2,0.2,0.3,0.3,0.6,0.3h4.2c0.3,0,0.4-0.1,0.6-0.3h0.3c0,0.5,0.1,1.5,0.1,2.2L86.3,93.2z"/>
		<path id="XMLID_2092_" class="st1" d="M87.5,99.1v-0.4c0.8-0.1,0.9-0.2,0.9-1.2v-4.7c0-1-0.1-1.1-0.9-1.2v-0.4h3.3v0.4
			c-0.8,0.1-0.9,0.2-0.9,1.2v4.7c0,1,0.1,1.1,0.9,1.2v0.4H87.5z"/>
		<path id="XMLID_2091_" class="st1" d="M98.2,97.2c-0.1,0.5-0.4,1.4-0.6,1.8c-0.3,0.1-1.2,0.3-2,0.3c-2.8,0-3.9-2-3.9-3.9
			c0-2.5,1.7-4.2,4.2-4.2c0.8,0,1.5,0.2,1.8,0.3c0.1,0.7,0.1,1.2,0.2,1.9l-0.4,0.1c-0.4-1.3-1.1-1.7-1.9-1.7c-1.4,0-2.2,1.6-2.2,3.4
			c0,2.2,1,3.7,2.3,3.7c0.9,0,1.5-0.7,2-1.7L98.2,97.2z"/>
		<path id="XMLID_2090_" class="st1" d="M104.8,97.2c-0.1,0.5-0.3,1.5-0.4,1.9h-5.6v-0.4c0.9-0.1,1-0.1,1-1.1v-4.7
			c0-1-0.1-1-0.9-1.1v-0.4h5.2c0,0.2,0.1,1,0.1,1.7l-0.4,0.1c-0.1-0.4-0.2-0.8-0.4-1c-0.2-0.2-0.5-0.3-1.2-0.3h-0.4
			c-0.4,0-0.4,0-0.4,0.4v2.5h0.7c1,0,1.1,0,1.3-0.9h0.4v2.4h-0.4c-0.2-0.9-0.3-0.9-1.3-0.9h-0.7v2.2c0,0.6,0.1,0.8,0.3,0.9
			c0.2,0.1,0.5,0.1,0.9,0.1c0.6,0,1-0.1,1.3-0.4c0.2-0.3,0.4-0.6,0.6-1.1L104.8,97.2z"/>
		<path id="XMLID_2089_" class="st1" d="M108.8,99.1v-0.4c0.8-0.1,0.9-0.2,0.9-1.2v-4.7c0-1-0.1-1.1-0.9-1.2v-0.4h3.3v0.4
			c-0.8,0.1-0.9,0.2-0.9,1.2v4.7c0,1,0.1,1.1,0.9,1.2v0.4H108.8z"/>
		<path id="XMLID_2088_" class="st1" d="M120.5,91.7c-0.6,0-0.8,0.2-0.9,0.7c0,0.4-0.1,1-0.1,2v4.8h-0.6l-4.3-5.9h0V96
			c0,1,0.1,1.6,0.1,2c0.1,0.5,0.3,0.7,1.1,0.7v0.4H113v-0.4c0.6,0,0.9-0.2,0.9-0.7c0-0.4,0.1-1,0.1-2v-2.5c0-0.8,0-1-0.2-1.3
			c-0.2-0.3-0.4-0.4-0.9-0.5v-0.4h2.1l4,5.2h0v-2.1c0-1.1-0.1-1.7-0.1-2c-0.1-0.4-0.3-0.6-1.1-0.7v-0.4h2.7V91.7z"/>
		<path id="XMLID_2087_" class="st1" d="M121.2,99.1v-0.4c0.8-0.1,0.9-0.2,0.9-1.2v-4.7c0-1-0.1-1.1-0.9-1.2v-0.4h3.3v0.4
			c-0.8,0.1-0.9,0.2-0.9,1.2v4.7c0,1,0.1,1.1,0.9,1.2v0.4H121.2z"/>
		<path id="XMLID_2086_" class="st1" d="M131.3,93.2c-0.1-0.6-0.3-1-0.4-1.2c-0.2-0.2-0.5-0.3-1-0.3h-0.5v5.7c0,1,0.1,1.1,1,1.2v0.4
			h-3.6v-0.4c0.9-0.1,1-0.2,1-1.2v-5.7h-0.4c-0.7,0-0.9,0.1-1.1,0.3c-0.2,0.2-0.3,0.6-0.4,1.1h-0.4c0-0.8,0.1-1.6,0.1-2.2h0.3
			c0.2,0.2,0.3,0.3,0.6,0.3h4.2c0.3,0,0.4-0.1,0.6-0.3h0.3c0,0.5,0.1,1.5,0.1,2.2L131.3,93.2z"/>
		<path id="XMLID_2085_" class="st1" d="M132.5,99.1v-0.4c0.8-0.1,0.9-0.2,0.9-1.2v-4.7c0-1-0.1-1.1-0.9-1.2v-0.4h3.3v0.4
			c-0.8,0.1-0.9,0.2-0.9,1.2v4.7c0,1,0.1,1.1,0.9,1.2v0.4H132.5z"/>
		<path id="XMLID_2082_" class="st1" d="M140.2,99.1v-0.4c0.6-0.1,0.7-0.2,0.5-0.8c-0.1-0.4-0.3-0.9-0.4-1.3h-2.1
			c-0.1,0.3-0.2,0.7-0.4,1.2c-0.2,0.6-0.1,0.8,0.7,0.9v0.4h-2.5v-0.4c0.7-0.1,0.9-0.2,1.2-1.1l2.3-6.3l0.6-0.1
			c0.7,2.1,1.4,4.2,2.1,6.3c0.4,1.1,0.5,1.2,1.2,1.3v0.4H140.2z M139.3,93.4L139.3,93.4c-0.4,0.9-0.6,1.8-0.9,2.6h1.7L139.3,93.4z"
			/>
		<path id="XMLID_2081_" class="st1" d="M149.1,93.2c-0.1-0.6-0.3-1-0.4-1.2c-0.2-0.2-0.5-0.3-1-0.3h-0.5v5.7c0,1,0.1,1.1,1,1.2v0.4
			h-3.6v-0.4c0.9-0.1,1-0.2,1-1.2v-5.7h-0.4c-0.7,0-0.9,0.1-1.1,0.3c-0.2,0.2-0.3,0.6-0.4,1.1h-0.4c0-0.8,0.1-1.6,0.1-2.2h0.3
			c0.2,0.2,0.3,0.3,0.6,0.3h4.2c0.3,0,0.4-0.1,0.6-0.3h0.3c0,0.5,0.1,1.5,0.1,2.2L149.1,93.2z"/>
		<path id="XMLID_2080_" class="st1" d="M150.3,99.1v-0.4c0.8-0.1,0.9-0.2,0.9-1.2v-4.7c0-1-0.1-1.1-0.9-1.2v-0.4h3.3v0.4
			c-0.8,0.1-0.9,0.2-0.9,1.2v4.7c0,1,0.1,1.1,0.9,1.2v0.4H150.3z"/>
		<path id="XMLID_2079_" class="st1" d="M161.9,91.7c-0.7,0.1-0.9,0.2-1.4,1.3c-0.4,1-1.4,3.7-2.2,6.2h-0.6
			c-0.7-2.2-1.8-5.1-2.2-6.4c-0.3-0.9-0.5-1.1-1.2-1.1v-0.4h3.3v0.4c-0.8,0.1-0.8,0.2-0.6,0.8c0.2,0.8,1.1,3.2,1.5,4.5h0
			c0.4-1.2,1-3,1.4-4.2c0.2-0.8,0.2-1-0.7-1.1v-0.4h2.6V91.7z"/>
		<path id="XMLID_2078_" class="st1" d="M168.4,97.2c-0.1,0.5-0.3,1.5-0.4,1.9h-5.6v-0.4c0.9-0.1,1-0.1,1-1.1v-4.7
			c0-1-0.1-1-0.9-1.1v-0.4h5.2c0,0.2,0.1,1,0.1,1.7l-0.4,0.1c-0.1-0.4-0.2-0.8-0.4-1c-0.2-0.2-0.5-0.3-1.2-0.3h-0.4
			c-0.4,0-0.4,0-0.4,0.4v2.5h0.7c1,0,1.1,0,1.3-0.9h0.4v2.4h-0.4c-0.2-0.9-0.3-0.9-1.3-0.9h-0.7v2.2c0,0.6,0.1,0.8,0.3,0.9
			c0.2,0.1,0.5,0.1,0.9,0.1c0.6,0,1-0.1,1.3-0.4c0.2-0.3,0.4-0.6,0.6-1.1L168.4,97.2z"/>
		<path id="XMLID_2077_" class="st1" d="M173.2,93.2c-0.3-0.8-0.6-1.6-1.5-1.6c-0.6,0-1,0.5-1,1.2c0,0.7,0.4,1.1,1.4,1.6
			c1.2,0.6,2,1.3,2,2.5c0,1.3-1.1,2.4-2.8,2.4c-0.4,0-0.8-0.1-1.1-0.1c-0.3-0.1-0.5-0.2-0.7-0.3c-0.1-0.3-0.2-1.2-0.3-1.9l0.4-0.1
			c0.2,0.7,0.8,2,1.9,2c0.7,0,1.1-0.5,1.1-1.2c0-0.7-0.5-1.2-1.3-1.7c-1.1-0.6-2-1.3-2-2.5c0-1.3,0.9-2.3,2.6-2.3
			c0.6,0,1.2,0.2,1.5,0.3c0,0.5,0.1,1,0.2,1.7L173.2,93.2z"/>
		<g id="XMLID_1616_">
			<path id="XMLID_29_" class="st2" d="M23.5,108c0,0.9-0.3,1.6-0.8,2.1c-0.5,0.5-1.2,0.7-2.2,0.7h-1.6v-5.7h1.7
				c0.9,0,1.6,0.2,2.1,0.7C23.2,106.4,23.5,107.1,23.5,108z M22.8,108c0-0.7-0.2-1.3-0.6-1.7c-0.4-0.4-0.9-0.6-1.7-0.6h-1v4.5h0.8
				c0.8,0,1.4-0.2,1.8-0.6S22.8,108.8,22.8,108z"/>
			<path id="XMLID_32_" class="st2" d="M25.2,110.9v-5.7h0.7v5.7H25.2z"/>
			<path id="XMLID_34_" class="st2" d="M31,105.2h0.7l-2,5.7h-0.7l-2-5.7h0.7l1.3,3.7c0.1,0.4,0.3,0.8,0.4,1.2
				c0.1-0.4,0.2-0.8,0.4-1.3L31,105.2z"/>
			<path id="XMLID_36_" class="st2" d="M33,110.9v-5.7h0.7v5.7H33z"/>
			<path id="XMLID_38_" class="st2" d="M38.8,109.4c0,0.5-0.2,0.9-0.5,1.2c-0.4,0.3-0.9,0.4-1.5,0.4c-0.7,0-1.2-0.1-1.5-0.3v-0.6
				c0.2,0.1,0.5,0.2,0.8,0.2c0.3,0.1,0.5,0.1,0.8,0.1c0.4,0,0.8-0.1,1-0.3c0.2-0.2,0.3-0.4,0.3-0.7c0-0.2,0-0.4-0.1-0.5
				c-0.1-0.1-0.2-0.2-0.4-0.3c-0.2-0.1-0.5-0.2-0.8-0.4c-0.5-0.2-0.9-0.4-1.1-0.7s-0.3-0.6-0.3-1c0-0.4,0.2-0.8,0.5-1
				c0.3-0.3,0.8-0.4,1.3-0.4c0.6,0,1.1,0.1,1.6,0.3l-0.2,0.6c-0.5-0.2-0.9-0.3-1.4-0.3c-0.3,0-0.6,0.1-0.8,0.2
				c-0.2,0.2-0.3,0.4-0.3,0.6c0,0.2,0,0.4,0.1,0.5c0.1,0.1,0.2,0.2,0.4,0.3c0.2,0.1,0.4,0.2,0.8,0.3c0.6,0.2,1,0.4,1.2,0.7
				C38.7,108.7,38.8,109,38.8,109.4z"/>
			<path id="XMLID_40_" class="st2" d="M40.4,110.9v-5.7h0.7v5.7H40.4z"/>
			<path id="XMLID_42_" class="st2" d="M48,108c0,0.9-0.2,1.6-0.7,2.1c-0.5,0.5-1.1,0.8-1.9,0.8c-0.8,0-1.5-0.3-1.9-0.8
				c-0.5-0.5-0.7-1.2-0.7-2.2c0-0.9,0.2-1.6,0.7-2.1c0.5-0.5,1.1-0.8,1.9-0.8c0.8,0,1.4,0.3,1.9,0.8C47.7,106.4,48,107.1,48,108z
				 M43.5,108c0,0.8,0.2,1.3,0.5,1.7s0.8,0.6,1.4,0.6c0.6,0,1.1-0.2,1.4-0.6c0.3-0.4,0.5-1,0.5-1.7c0-0.8-0.2-1.3-0.5-1.7
				c-0.3-0.4-0.8-0.6-1.4-0.6c-0.6,0-1.1,0.2-1.4,0.6S43.5,107.3,43.5,108z"/>
			<path id="XMLID_45_" class="st2" d="M54.1,110.9h-0.8l-3.1-4.8h0c0,0.6,0.1,1.1,0.1,1.5v3.2h-0.6v-5.7h0.7l3.1,4.7h0
				c0-0.1,0-0.3,0-0.7s0-0.6,0-0.8v-3.3h0.6V110.9z"/>
			<path id="XMLID_47_" class="st2" d="M62.2,108.7c0,0.7-0.2,1.2-0.5,1.6s-0.8,0.6-1.4,0.6c-0.4,0-0.7-0.1-1-0.3s-0.5-0.4-0.7-0.8
				c-0.2-0.3-0.2-0.7-0.2-1.2c0-0.7,0.2-1.2,0.5-1.6s0.8-0.6,1.4-0.6c0.6,0,1.1,0.2,1.4,0.6C62,107.5,62.2,108.1,62.2,108.7z
				 M58.9,108.7c0,0.5,0.1,1,0.3,1.2s0.5,0.4,1,0.4s0.7-0.1,1-0.4s0.3-0.7,0.3-1.2c0-0.5-0.1-1-0.3-1.2c-0.2-0.3-0.5-0.4-1-0.4
				c-0.4,0-0.7,0.1-1,0.4C59,107.8,58.9,108.2,58.9,108.7z"/>
			<path id="XMLID_50_" class="st2" d="M65.6,107.1h-1.1v3.7h-0.6v-3.7h-0.8v-0.3l0.8-0.2v-0.2c0-1,0.5-1.6,1.4-1.6
				c0.2,0,0.5,0,0.8,0.1l-0.2,0.5c-0.2-0.1-0.5-0.1-0.6-0.1c-0.2,0-0.4,0.1-0.5,0.2c-0.1,0.2-0.2,0.4-0.2,0.8v0.3h1.1V107.1z"/>
			<path id="XMLID_52_" class="st2" d="M73,106.9c0,0.6-0.2,1-0.6,1.3c-0.4,0.3-1,0.5-1.7,0.5h-0.7v2.2h-0.7v-5.7h1.5
				C72.3,105.2,73,105.8,73,106.9z M70.1,108.1h0.6c0.6,0,1-0.1,1.3-0.3s0.4-0.5,0.4-0.9c0-0.4-0.1-0.7-0.4-0.8
				c-0.2-0.2-0.6-0.3-1.1-0.3h-0.7V108.1z"/>
			<path id="XMLID_55_" class="st2" d="M79.6,108c0,0.9-0.2,1.6-0.7,2.1c-0.5,0.5-1.1,0.8-1.9,0.8c-0.8,0-1.5-0.3-1.9-0.8
				c-0.5-0.5-0.7-1.2-0.7-2.2c0-0.9,0.2-1.6,0.7-2.1c0.5-0.5,1.1-0.8,1.9-0.8c0.8,0,1.4,0.3,1.9,0.8C79.3,106.4,79.6,107.1,79.6,108
				z M75.1,108c0,0.8,0.2,1.3,0.5,1.7s0.8,0.6,1.4,0.6c0.6,0,1.1-0.2,1.4-0.6c0.3-0.4,0.5-1,0.5-1.7c0-0.8-0.2-1.3-0.5-1.7
				c-0.3-0.4-0.8-0.6-1.4-0.6c-0.6,0-1.1,0.2-1.4,0.6S75.1,107.3,75.1,108z"/>
			<path id="XMLID_58_" class="st2" d="M81.3,110.9v-5.7h0.7v5.1h2.5v0.6H81.3z"/>
			<path id="XMLID_60_" class="st2" d="M85.8,110.9v-5.7h0.7v5.7H85.8z"/>
			<path id="XMLID_62_" class="st2" d="M90.5,105.7c-0.6,0-1.1,0.2-1.5,0.6c-0.4,0.4-0.5,1-0.5,1.7c0,0.7,0.2,1.3,0.5,1.7
				c0.3,0.4,0.8,0.6,1.5,0.6c0.4,0,0.8-0.1,1.4-0.2v0.6c-0.4,0.1-0.9,0.2-1.5,0.2c-0.8,0-1.5-0.3-1.9-0.8c-0.5-0.5-0.7-1.2-0.7-2.2
				c0-0.6,0.1-1.1,0.3-1.5s0.5-0.8,0.9-1c0.4-0.2,0.9-0.4,1.5-0.4c0.6,0,1.1,0.1,1.6,0.3l-0.3,0.6C91.3,105.8,90.9,105.7,90.5,105.7
				z"/>
			<path id="XMLID_64_" class="st2" d="M94.5,108l1.5-2.8h0.7l-1.9,3.5v2.2h-0.7v-2.2l-1.9-3.5H93L94.5,108z"/>
			<path id="XMLID_66_" class="st2" d="M102.1,110.9l-0.1-0.6h0c-0.2,0.3-0.4,0.4-0.6,0.5c-0.2,0.1-0.5,0.1-0.8,0.1
				c-0.4,0-0.8-0.1-1-0.3c-0.2-0.2-0.4-0.5-0.4-0.9c0-0.9,0.7-1.3,2.1-1.3l0.7,0v-0.3c0-0.3-0.1-0.6-0.2-0.7s-0.4-0.2-0.7-0.2
				c-0.4,0-0.8,0.1-1.2,0.3l-0.2-0.5c0.2-0.1,0.4-0.2,0.7-0.3c0.3-0.1,0.5-0.1,0.8-0.1c0.5,0,0.9,0.1,1.1,0.3
				c0.2,0.2,0.4,0.6,0.4,1.1v2.9H102.1z M100.6,110.4c0.4,0,0.7-0.1,0.9-0.3s0.3-0.5,0.3-0.9v-0.4l-0.6,0c-0.5,0-0.9,0.1-1.1,0.2
				c-0.2,0.1-0.3,0.4-0.3,0.7c0,0.2,0.1,0.4,0.2,0.5C100.2,110.4,100.4,110.4,100.6,110.4z"/>
			<path id="XMLID_69_" class="st2" d="M107.2,110.9v-2.7c0-0.3-0.1-0.6-0.2-0.8c-0.2-0.2-0.4-0.3-0.7-0.3c-0.4,0-0.8,0.1-1,0.4
				c-0.2,0.2-0.3,0.6-0.3,1.2v2.2h-0.6v-4.2h0.5l0.1,0.6h0c0.1-0.2,0.3-0.4,0.6-0.5c0.2-0.1,0.5-0.2,0.8-0.2c0.5,0,0.9,0.1,1.2,0.4
				c0.3,0.2,0.4,0.6,0.4,1.2v2.8H107.2z"/>
			<path id="XMLID_71_" class="st2" d="M112.5,110.3L112.5,110.3c-0.3,0.4-0.8,0.6-1.4,0.6c-0.6,0-1-0.2-1.3-0.6
				c-0.3-0.4-0.5-0.9-0.5-1.6s0.2-1.2,0.5-1.6c0.3-0.4,0.7-0.6,1.3-0.6c0.6,0,1,0.2,1.3,0.6h0.1l0-0.3l0-0.3v-1.7h0.6v6h-0.5
				L112.5,110.3z M111.2,110.4c0.4,0,0.8-0.1,1-0.4c0.2-0.2,0.3-0.6,0.3-1.2v-0.1c0-0.6-0.1-1-0.3-1.3c-0.2-0.3-0.5-0.4-1-0.4
				c-0.4,0-0.7,0.1-0.9,0.4s-0.3,0.7-0.3,1.2c0,0.5,0.1,1,0.3,1.2S110.8,110.4,111.2,110.4z"/>
			<path id="XMLID_74_" class="st2" d="M121.1,106.9c0,0.6-0.2,1-0.6,1.3s-1,0.5-1.7,0.5h-0.7v2.2h-0.7v-5.7h1.5
				C120.4,105.2,121.1,105.8,121.1,106.9z M118.2,108.1h0.6c0.6,0,1-0.1,1.3-0.3s0.4-0.5,0.4-0.9c0-0.4-0.1-0.7-0.4-0.8
				s-0.6-0.3-1.1-0.3h-0.7V108.1z"/>
			<path id="XMLID_77_" class="st2" d="M122.7,110.9v-5.7h0.7v5.1h2.5v0.6H122.7z"/>
			<path id="XMLID_79_" class="st2" d="M130.8,110.9l-0.7-1.8h-2.3l-0.7,1.8h-0.7l2.2-5.7h0.6l2.2,5.7H130.8z M129.9,108.5l-0.7-1.8
				c-0.1-0.2-0.2-0.5-0.3-0.8c-0.1,0.2-0.1,0.5-0.2,0.8l-0.7,1.8H129.9z"/>
			<path id="XMLID_82_" class="st2" d="M137.1,110.9h-0.8l-3.1-4.8h0c0,0.6,0.1,1.1,0.1,1.5v3.2h-0.6v-5.7h0.7l3.1,4.7h0
				c0-0.1,0-0.3,0-0.7c0-0.4,0-0.6,0-0.8v-3.3h0.6V110.9z"/>
			<path id="XMLID_84_" class="st2" d="M143.6,110.9h-0.8l-3.1-4.8h0c0,0.6,0.1,1.1,0.1,1.5v3.2h-0.6v-5.7h0.7l3.1,4.7h0
				c0-0.1,0-0.3,0-0.7c0-0.4,0-0.6,0-0.8v-3.3h0.6V110.9z"/>
			<path id="XMLID_86_" class="st2" d="M145.6,110.9v-5.7h0.7v5.7H145.6z"/>
			<path id="XMLID_88_" class="st2" d="M152.6,110.9h-0.8l-3.1-4.8h0c0,0.6,0.1,1.1,0.1,1.5v3.2h-0.6v-5.7h0.7l3.1,4.7h0
				c0-0.1,0-0.3,0-0.7c0-0.4,0-0.6,0-0.8v-3.3h0.6V110.9z"/>
			<path id="XMLID_90_" class="st2" d="M156.7,107.9h1.9v2.8c-0.3,0.1-0.6,0.2-0.9,0.2c-0.3,0-0.7,0.1-1.1,0.1c-0.9,0-1.5-0.3-2-0.8
				c-0.5-0.5-0.7-1.2-0.7-2.1c0-0.6,0.1-1.1,0.4-1.5s0.6-0.8,1-1c0.4-0.2,1-0.3,1.6-0.3c0.6,0,1.2,0.1,1.7,0.3l-0.3,0.6
				c-0.5-0.2-1-0.3-1.5-0.3c-0.7,0-1.2,0.2-1.6,0.6c-0.4,0.4-0.6,1-0.6,1.7c0,0.8,0.2,1.3,0.6,1.7c0.4,0.4,0.9,0.6,1.6,0.6
				c0.4,0,0.8,0,1.2-0.1v-1.7h-1.3V107.9z"/>
		</g>
	</g>
	<linearGradient id="XMLID_92_" gradientUnits="userSpaceOnUse" x1="88.9015" y1="83.502" x2="88.9015" y2="20.9031">
		<stop  offset="0" style="stop-color:#57C1EF"/>
		<stop  offset="0.1834" style="stop-color:#43A8DB"/>
		<stop  offset="0.549" style="stop-color:#1F7CB9"/>
		<stop  offset="0.8335" style="stop-color:#0861A3"/>
		<stop  offset="1" style="stop-color:#00579B"/>
	</linearGradient>
	<path id="XMLID_2180_" class="st3" d="M151.7,81.3c0-34.7-28.1-62.8-62.8-62.8c-34.7,0-62.8,28.1-62.8,62.8c0,1.5,0.1,3,0.2,4.5
		h125.1C151.6,84.3,151.7,82.8,151.7,81.3z"/>
	<g id="XMLID_1617_">
		<defs>
			<path id="XMLID_1856_" d="M26.6,81.1c0,1.6,0.1,3.2,0.2,4.7h124.7c0.1-1.6,0.2-3.2,0.2-4.7c0-34.5-28-62.5-62.5-62.5
				C54.6,18.5,26.6,46.5,26.6,81.1"/>
		</defs>
		<clipPath id="XMLID_93_">
			<use xlink:href="#XMLID_1856_"  style="overflow:visible;"/>
		</clipPath>
		<path id="XMLID_1855_" class="st4" d="M74.3,76.4l0,1l0.3,0l0,1.1l-0.3,0l0,0.1c3.8,0,7.3-0.4,7.5-1c0.1-1.1-3.3-1.6-7.1-1.6
			l0,0.5L74.3,76.4z"/>
		<path id="XMLID_1854_" class="st4" d="M73.8,77.3l0-1l-0.3,0l0-0.5c-2.2,0-4.4,0.2-6,0.5l0,0.1l-0.3-0.1c-1.1,0.2-1.9,0.5-2,0.8
			c-0.1,0.9,4.3,1.3,8.6,1.3l0-0.1l-0.3,0l0-1.1L73.8,77.3z"/>
		<path id="XMLID_1853_" class="st4" d="M62.5,77.2c0-0.3-0.3-0.6-0.9-0.9l-0.3,0.1l0-0.2c-1.3-0.4-3.3-0.6-5.5-0.6l0,0.1l0.3,0
			l-0.1,1.1l-0.3,0l-0.1,1l0.3,0l-0.1,0.5C59.2,78.2,62.4,77.8,62.5,77.2"/>
		<path id="XMLID_1852_" class="st4" d="M55,77.7l0.1-1l-0.3,0l0.1-1.1l0.3,0l0-0.1c-2.8,0-5.7,0.2-7.5,0.6l-0.2,0.5l0.3,0.1
			l-0.4,0.9c1.6,0.3,4.4,0.5,7.1,0.5l0.1-0.6L55,77.7z"/>
		<path id="XMLID_1851_" class="st4" d="M62.6,65.4c0.5,2.3,0.4,2.7,1.5,3.6c1.2,1,2.6,1.6,4.1,1.9l0.1-0.3L68,70.4l0.3-1.1l0.3,0.1
			l0.3-0.9l-0.3-0.1l0.3-1.1l0.3,0.1l0.3-1l-0.3-0.1l0.3-1.1l0.3,0.1l0.3-1l-0.4-0.1l0.3-1.1l0.3,0.1l0.2-0.9l-0.3-0.1l0.3-1.1
			l0.3,0.1l0.3-1l-0.3-0.1l0.2-0.7c-1.6-3.2-2.8-4.9-3.9-8.1h-1.7v-1.8l-5.1-0.3C61.1,55.5,62.1,63.3,62.6,65.4"/>
		<path id="XMLID_1850_" class="st4" d="M69.9,66.6l-0.3,1l0.3,0.1l-0.3,1.1l-0.3-0.1l-0.3,0.9l0.3,0.1l-0.3,1.1l-0.3-0.1l-0.1,0.3
			c1.7,0.2,3.5,0.1,5.2-0.4l0-0.2l-0.4,0l0-1.1l0.3,0l0-1l-0.4,0l0-1.1l0.4,0l0-1l-0.3,0l0-1.1l0.3,0l0-1l-0.4,0l0-1.1l0.3,0l0-1
			l-0.4,0l0-1.1l1.1,0l0,1.1l-0.3,0l0,1l0.4,0l0,1.1l-0.3,0l0,1l0.4,0l0,1.1l-0.3,0l0,1l0.3,0l0,1.1l-0.3,0l0,1l0.4,0l0,1.1l-0.3,0
			l0,0.1c1.2-0.3,2.4-0.8,3.6-1.3l-0.2,0.1l-0.3-1.1l0.3-0.1l-0.3-0.9l-0.3,0.1L76.8,66l0.4-0.1l-0.3-1L76.6,65l-0.3-1.1l0.4-0.1
			l-0.3-0.9L76.1,63l-0.3-1.1l0.3-0.1l-0.3-0.9l-0.3,0.1l-0.3-1.1l0.4-0.1l-0.2-0.8L75,58.9l-0.4-1.1l0.4-0.1l-0.1-0.4
			c-0.1,0.1-0.2,0.1-0.3,0.2l0,0.4l-0.4,0l0,1l0.3,0l0,1.1l-0.3,0l0,1l-0.5,0l0-1l-0.4,0l0-1.1l0.4,0l0-0.9
			c-0.6,0.4-1.2,0.8-1.7,1.1l-0.1,0.3l0.3,0.1l-0.3,1.1l-0.3-0.1l-0.3,1l0.3,0.1l-0.3,1.1L71,62.6l-0.2,0.9l0.3,0.1l-0.3,1.1
			l-0.3-0.1l-0.3,1l0.3,0.1l-0.3,1.1L69.9,66.6z"/>
		<path id="XMLID_1849_" class="st4" d="M65.4,47.3c-0.4-1.7-0.5-4.4-0.6-6.8c-1.5,0.4-3.4-0.5-3-0.5c2.8,0.2,4.3-1.2,4.6-1.5
			c2.6-3.6,0.1-2.8-0.1-3.6l2.3,0.9l-0.9,0.1c0.9,0.6,1.5,0.7,1.9,0.1c0.5-0.5,0.6-0.7,0.2-1.3c-0.6-0.6-1.6-1.1-2.4-1.7
			c-0.9-0.6-1.9-1.2-2.8-0.3c1.2-1.7,3.8,0.3,5.5,1c0.8,0.1,0.7-1.1,0.5-1.3c-1.3-0.4-4.8-3.3-5.9-1.8c0.7-2,5.1,0.6,5.9,1.3
			c0.1-0.1,0.2-0.3,0-0.8c-0.2-0.3-2.5-1.6-3.8-2.3c-0.6-0.4-1.6-0.3-2.3,0c1-0.9,2.5-0.1,4.6-0.4l-1.7,0.5l1.6,0.6
			c0.3-0.8,0.9-1.8-0.1-2.4l-4.3,0.3c-4.3,8.1-5.8,10.2-5.6,13.3c0.1,1,0.6,4,0.9,6.6l5.4,0.2V47.3z"/>
		<path id="XMLID_1848_" class="st4" d="M65.4,47.8l-5.5-0.3c0,0.5-0.2,1.2-0.9,1.3l0,0.7c0.7,0,0.9-0.7,1.3-0.6l5.1,0.3V47.8z"/>
		<polygon id="XMLID_1847_" class="st4" points="58.8,50.9 58.9,48.3 58.4,48.3 58.3,50.8 		"/>
		<path id="XMLID_1846_" class="st4" d="M58.2,49.6l0-0.7c-0.3-0.1-1-0.4-0.9-1.9l-0.5,0C56.7,49.1,57.8,49.5,58.2,49.6"/>
		<path id="XMLID_1845_" class="st4" d="M66.1,40.9v9.9l1.6,0c0-3.3,0-6.6,0-9.9l-0.4,0l0-3.1c-0.2,0.4-0.5,0.7-0.8,1.1l0,1.9
			L66.1,40.9z"/>
		<path id="XMLID_1844_" class="st4" d="M72.9,48l-4.9-0.1l0,1.5c0.6,0,4.4,0,4.5,0.1c0,0.2,0.3,1,1.1,1.1l0-0.7
			C73.5,49.8,73,49.5,72.9,48"/>
		<polygon id="XMLID_1843_" class="st4" points="73.9,49.3 73.9,51.9 74.1,51.9 74.4,51.9 74.4,49.3 		"/>
		<path id="XMLID_1842_" class="st4" d="M74.6,49.9l0,0.8c1.7-0.1,1.4-2.1,1.4-2.5h-0.7C75.3,48.7,75.3,49.9,74.6,49.9"/>
		<path id="XMLID_1732_" class="st5" d="M110,35.4c1.7,0.8,6.5,5.5,6.3,6.3c0,0.2-0.1,0.4-0.3,0.4c-1.3,0.2-1.6-2.9-4.2-5.2
			C111.3,36.4,110.7,35.8,110,35.4 M78,218.2l-0.1,1.1c0.4,1.1,1.4,3,2.6,3c1.7,0,3-1.1,4.5-1.8c1.1-0.5,2-1.5,1.7-2.9
			c-0.2,1.8-2.2,2-3.7,2.9c-1.2,0.7-2.3,1.3-3.3,0.5C79,220.2,78.4,219.1,78,218.2 M85.3,220.8c-1.6,0.7-2.8,1.8-4.7,1.8
			c-1.2,0-2.4-1.4-3-3.3l0.1-2.1c-0.3-1.3,0.1-2.1,0.2-2.3c0,0-1.1-1.5,0.4-5.9c3.1-8.5,1.8-8.3,2.4-26.3c0.4-9.6,1.2-19.8,1.2-19.8
			c-1.1,1.9-8.5,0.5-7.9-1.2l1.4-7.9c-1,0.2-3.4-1.5-3-3.9l0,0c1.9-21.8,3.2-46.6,8.6-69.3c-0.1-0.2-0.1-0.4-0.2-0.7
			c0.3-0.1,0.5-0.2,0.7-0.4c0.1,0.3,0.3,0.6,0.5,0.7c-0.2,1.4-6,14.7-0.6,17.2c1,0.4,2,0.9,2.7,3.4c1.1,3.7,0.6,7-4.2,8
			c-1.5,0.3-2.5,0.8-2.5,2.4c0,1.4,0.9,2.1,2.1,2.3c1.8,0.4,3,1.1,3.1,3.2c-0.2,2.9-1.9,3.5-3.4,4c-1.6,0.5-2.9,1-2.6,3.9
			c0.5,1.3,1.3,2,2.1,2.6c0.6,0.5,1.9,1.1,2.3,3.2c0.2-1.7,3-24.1,5.1-29.3c-2.3-3.7-4.6-6.2-4.7-10.3c0-4.3,1.2-7.4,2.5-11.4
			c0-0.7-1.1-1.1-1.7-1.7c-0.1-0.3-0.2-0.6-0.4-0.9c0-0.1,0-0.1,0-0.2l0.8-8.7c-0.8,1.8-1.6,5.5-1.6,8.4c-0.3-0.1-0.5-0.2-0.8-0.2
			c0-1.8,0.5-3.8,1.1-7.2c-5.4,2.7-11.5,4.4-17.3,1.9l0,0c-1.7-1.2-3.8-14.8-4.1-17.3l0,0c-0.1-1.1-0.2-2.6-0.4-3.8
			c0,0,0.8-0.4,0.9-0.4c0.8,6.1,1.8,14,2.3,16.1c0.6,2.3,0.4,2.7,1.5,3.6c6.7,5.5,18.9-1.2,22.2-6.7c2.1-4.1,2.7-13.9-3.3-11
			c-3.6,2.9-8.6,6.3-11.9,8.4c-1.7-3.3-2.9-5-3.9-8.3c0.2,0,0.6,0.1,0.7,0c1.3,2.8,3.1,5.8,3.3,8c6.4-4,15.7-15.6,20-8.8
			c1.6,0.1,2.7,0.6,3.9,1.7c0.6-0.1,1.1-0.1,1.4,0.1c3.5-0.3,4.2-4.8,2.3-6.2C98,46,97.2,45.7,97,44.9c-1.6-3.4-1.7-6-2.3-9
			c-2.5-2.9-1.1-11.4,5.2-11.2c0.9-0.2,1.3-1.4,3.6-1.2c2.1,0.1,3.6,1.2,4.7,1.9c7,3.4,10,8.4,9,15.8c0.6,1,1.3,5,0.5,8.1
			c-0.1,1.5-1.9,1.7-0.7,9.4c-2.7-5.9-1.6-5.9-2.4-8.8c0.1,1.7,0.3,3.2-0.8,5.2c-0.7-2.4-1.3-1.6-1.3-3.2c-0.3,0.2-0.7,0.4-1.1,0.5
			c0.5,5,1.6,6.1,4.4,8.2c0.4-0.1,1.2-0.1,1.4-0.1c0.5,0.1,0.9,0.2,1.2,0.5c9,0.6,10.7,14.7,11.8,20.9c2.5,11.4,3.4,13.3,4.5,15.3
			c0.5,1,1.1,2,1.8,4.2l0,0c1,3.9,1.7,9.1,2.3,14.1c0.5,3.7,0.9,7.4,1.5,10.3l0.7,1.1l1.3,0.2l0.5,2.4l1.3,2.1
			c0.4,1.3,0.2,2-0.3,2.6c0,0,0-1.1-0.1-1.2l-0.1,0.3c0,0.3,0.1,0.9,0,1c-0.1,0.3-0.4,0.6-0.6,0.7l-0.1-1.1L143,134
			c0,0.3,0.1,1,0.1,1.1c-0.3,0.6-0.5,0.7-0.8,0.9c0,0-0.7,1.2-0.8,1.3l-1.2,1l0.8,3.7l-1,0.5l-2.8-2.1l-3.7,5.8l0.4,6.2
			c-3.8-0.3-1.8,3-4.2,3l-0.6,62.6c-0.3,2.6-1.3,3.1-3.5,3c-0.3,0.2-1.5,1-3.1,0.8c-0.4,2-2.7,1.5-4.3,1c-0.4-0.1-1.2-0.2-1.9,0.5
			c-1.2,1.1-2.8,1.8-4.9,1.7c-2.5,0-3.5-0.8-4.7-2.2c-1.1,2.7-4.5,1.2-5.4-0.5c-0.2,1.2-0.5,2-0.8,2.1c-3,1-5.3-1.1-5.4-1.1
			c0.1-0.2,0.2-0.5,0.4-1c1.3,0.8,2.1,1.6,3.9,0.9c1.2-0.4,2.7-14.1,3.3-28c0.1-1.9,1.9-59.2,3.2-63.7c0.1,4.8-1.6,53.6-2,63.7
			c-0.4,10.7-1.3,21.8-2.1,26.7c1.3,1,3.4,3,3.8,0c0-2.3,0.7-3.5,2.4-4c1.9-66.8,2.1-53.2,1.7-100.5c-0.2-4.8,0.8-11.5,0-15.3
			c-1,2-2.9-2.2-2.9,3.3l-0.8,24.5c-0.5-9.6-1.2-21.5-3-21.1c-2,0.4-1.6,29.3-2.4,44.1c-1.2-11.9-0.1-39.7-3.1-40.5l-1.4,38
			l-0.8-35.4c-0.4,1.1-1.5,2.1-2.5,2.6c-1.3,0.3-2.2,1-2.6,2.1c-0.6,1.4-2.7,0.7-3,2.1c-0.2,0.9,1.4,2.3,1,4
			c-1.6,6.4,0.6,28.1,4.8,35.3c-2.7-3.4-7.2-15.2-6.7-31.9c-0.4,4-1.6,26.4,7,38.7c-6.1-6.6-9.6-19.8-8.6-36.7
			c-2.2,20.3,3.4,37,6.4,41.6c-2.3-2.7-4.1-5.5-5.8-13.3c0.4,3.9-1,10.5,1.5,17.7c-2.2-3.1-2.4-6.4-2.7-10.2
			c-2.7,11.6-2,30.3-3.4,36.8c-0.8,3.9-2.4,8.7-0.6,7.5c0.5-0.4,0.9-0.8,1.4-0.7c3.7,0.6,4.7,4.7,5.8,6.4c0,0,4.2,7.3,6.5,4.5
			c2-2.4,4.6-37.2,5.5-49.6c-3,18.6-6.8,37-15.8,32.7c12,2.7,17.3-51.5,17.3-51.6c0.7,0.1-3,67.3-5.4,70.3
			C91.7,227.4,89.5,217.9,85.3,220.8 M106.4,221.6c0.5,0.5,1.6,2.8,5.1,2.9c2,0,3.5-0.5,4.6-1.6c1.6-1.6,1-2.5,1.1-2.3
			c-0.5,2.5-4.8,3.6-7.9,2.9c-1.4-0.4-2.3-1.8-2.8-2.8C106.4,221.1,106.4,221.1,106.4,221.6 M116,221.3c0.2,0,0.6-0.9,0.5-1.5
			c-0.2-0.5-0.6-1.2-1-1.9c-1-1.5-0.7,1.5-5.4,0.3l0.1-1.4c0,0,3.4,1.6,3.7,0.3c0.9-9.5,0.8-108,1.9-116.1c0.1-1.5,0-3.7-1.2-3.8
			c0.5,0.3,0.6,4-1.9,2.7c-0.1,0.5-2.6,87.8-2.5,118.3c-1.3,0-2.3,0.4-3,1.4c0,0,1,3.2,2.4,3.4c1.8,0.2,1.3-1.3,0.6-3.1
			c0.5,0.8,0.5,0.9,1.1,2.2c0.2,0.5,0.7,1,1.1,1c0.9-0.1,0.2-2,0-3c0.2,0.4,0.4,1,0.6,1.3c1.2,2.6,2.4,1,1.2-1.5
			c0.3,0.1,0.6,1,0.8,1.6c0.1,0.5,0.4,0.8,0.9,0.2c0.3-0.5,0-1.5-0.1-2C115.9,219.9,116.1,221.5,116,221.3 M79.2,215.5l-0.9,1.2
			c-0.2,0.4-0.4,1.5,0.3,0.8c0.3-0.4,0.5-0.6,1.3-1.1c0,0-1.5,1.1-1.4,1.9c0.1,0.3,0.3,0.6,0.7,0.1c0.3-0.5,0.7-1.1,1.3-1.2
			c-0.8,0.6-1.5,1.3-1.3,2.2c0.1,0.4,0.4,0.4,0.6,0.1c0.4-0.6,1.2-1.3,1.9-1.7c-0.2,0.5-2.4,1.9-1.7,2.8c0.8,0.7,1.6-0.2,2.7-0.9
			c2-1.1,3.9-1.7,2.9-4.6c-0.9-1.8-2.1-4.1-4.4-4.3c-0.3,0-0.6,0.1-0.8,0.3l0,0c-0.4,1.6-1.2,2.8-2.3,3.9c-0.1,0.1-0.3,0.4-0.2,1.1
			c0,0.4,0.2,0.4,0.3,0.3L79.2,215.5z M80.6,207.7c3.4-1.2,6.9,2.8,8.9,5.6c2.7,3.9,5.6-16.6,7.1-22.3c-3.1,27.5-6.2,24.9-6.3,25.3
			C88.7,212.6,85,207.6,80.6,207.7 M125.8,219c1.5,0.8,2.3-1.1,2.4-1.2l0.8-64.9c0.7,3.4,1.6,0.9,1.8-0.6c0.1-0.9,1.2-1.2,2.3-0.5
			l-0.4-4.3l-6,9.2L125.8,219z M122.6,220.5c1.5,0.2,2.3-0.4,2.6-0.9c-0.1-21.8-0.7-40.5,0.8-61.9l-1.1,1.8l-1.9,1.4
			C121.4,180,123,195,122.6,220.5 M117.6,220c0.1,0.5-0.1,1.4-0.2,1.9c0.5-0.7,3.8,1.2,4.3-1.8c-0.2-11.3-0.5-56.2-1-57.9
			c-1.3,18.9-0.7,38.4-0.8,57.5C119.9,220.1,118.4,220.7,117.6,220 M114.2,216.5c1.5,0.4,2.4,1,3,2.2c0.5,1,1.6,0.8,2.4,0.1
			c-0.2-18.3-1.3-36.4-1.2-54.6l-1.7,1.4c3.4-6,4.6-62.2,0.9-67.3C116.3,132.1,117,182.6,114.2,216.5 M84.3,202.3c0,0,9.6-8,9-30.9
			C96.5,180.7,90.8,198.3,84.3,202.3 M116.4,41.2c-1.4-1.8-3.5-4-5.2-5.6c1.5,0.7,3.9,3.1,5.3,5.1L116.4,41.2z M114.3,49.3
			c-1.8-0.2-2.5-1.2-2.8-2.3c0.7,1,1.8,2,3.1,2C114.5,49.1,114.5,49.2,114.3,49.3 M65.6,43.7c-0.3-1.6-0.4-2.5-0.5-3.2
			c1-1.2,2-2.4,2.7-3.7c0.4-0.6,0.9,0,1.6-0.3c1-0.7,1.1-0.9,0.7-1.9c0.5-0.2,1.5-1.1,0.7-2.1c0-0.5,0.3-0.8,0.1-1.4
			c-0.3-0.5-1.2-0.9-1.8-1.3c0.4-1.1,1-1.9-0.1-2.9c-0.2-0.1-4,0-4.5,0.3c-1,0.6-4.3,6.7-5.6,10.6l0,0c-0.3,1.2-0.3,2.1-0.4,3.3
			c0,1.7,0.3,5.9,0.6,7.7c0.4-0.1,0.4-0.8,0.6-1.2c0.1-0.3,0.1-0.3,0.3-0.3c-0.3-2.5-0.7-5.6-0.9-6.6c-0.2-3.1,1.3-5.2,5.6-13.3
			l4.3-0.3c1,0.6,0.4,1.6,0.1,2.4l-1.6-0.6l1.7-0.5c-2.1,0.3-3.6-0.5-4.6,0.4c0.7-0.3,1.8-0.4,2.3,0c1.3,0.8,3.6,2,3.8,2.3
			c0.1,0.5,0,0.7,0,0.8c-0.9-0.7-5.2-3.3-5.9-1.3c1-1.5,4.6,1.4,5.9,1.8c0.1,0.2,0.3,1.4-0.6,1.3c-1.7-0.7-4.2-2.6-5.5-1
			c0.9-0.9,1.9-0.3,2.8,0.3c0.8,0.6,1.8,1.1,2.4,1.7c0.3,0.5,0.3,0.8-0.2,1.3c-0.4,0.5-1.1,0.5-1.9-0.1l0.9-0.1l-2.3-0.9
			c0.3,0.8,2.7,0,0.1,3.6c-0.3,0.4-1.8,1.7-4.6,1.5c-0.4,0,1.5,0.9,3,0.5c0.1,2.5,0.2,5.3,0.6,6.9C65.6,47.4,65.5,43.7,65.6,43.7
			 M115.4,60.7c-1.2,1.4-2.5,2.4-4.2,3.8c-4.7-7-9.9-8.1-14.7-11.5c4-0.8,3.7-3.9,4.8-5.3c0.7-1,2.3-1.1,3.9-2
			c-3.5,1.3-5.6,0.7-6.8,0.1c-1.4-0.8-0.9-2.7,0-3.2c1.3-0.5,2.7,0.3,3.7,0.2c6.5-0.1,6.4-0.7,7.6-1.2
			C112.7,52.4,107,56.8,115.4,60.7 M111.8,81.3c-3.5-4.7-3.1-11.2-6.5-14.4C105.7,70.6,109.8,79.2,111.8,81.3 M83.8,80.3
			c-0.3,6.4,0.1,11,1.3,15c-0.9-6.1-0.8-12,0-16.1l0.4,12.9c-0.4,0.8,1,2.5,1.6,3.2c-0.4-0.2-1.3-0.7-1.8-0.5
			c-0.8,0.6,0.4,2.2,0.7,2.9c-1-0.6-1.7-4.6-3-3.8C83.1,88.5,83,85.7,83.8,80.3 M85.7,92l1.2-13.2l0.3,11.1
			c-0.3,0.5,0.1,1.1,0.6,1.5c0.4,0.4,2,1.4,1.6,2c-0.4,0.6-1.3-0.2-1.6-0.5C87.3,92.5,86.4,91.4,85.7,92 M87.4,89.5l1.8-12.1
			l0.9-0.7c0,2.1-0.9,7.7-0.3,11.2c0.2,1.6,1.1,2.2,2,2.7c-1.1,0.4-1.7,0-2.4-0.8C88.7,89.2,88.3,88.8,87.4,89.5 M90.5,87.7
			l-0.2-11.1l1.9-1.6c0.1,2.2,0.8,11.9,2.4,13C93.4,87.2,91.3,86.9,90.5,87.7 M92.3,74.9l1.1-0.9c0.3,3.2,2.2,9.6,2.2,9.6
			c0,0.6,0.7,1.3,1.1,1.8C96,85,95.3,85,94.8,85.3C94.6,85.4,92.6,76.5,92.3,74.9 M93.6,73.9l1-0.9c0.1-1,0.7-3.1,0.7-2.6
			c0.1,4.3,2.6,9.8,5.2,14.6c-1.3-0.3-2-1.7-3-2C95.4,82.5,94.4,76.8,93.6,73.9 M100.9,82.9c-7.1-12.9-5.6-14.3-4.1-27.9
			c0.2-1.3,7.3,3,9.6,5.3l6.4,23.5c-0.8-1.5-2.2-1.9-2.3-0.3c-1.1-0.6-1.7-2-3.1-1.3c-2.3-8.8-6.1-12.2-5.6-23
			c-1.4,2.1-0.8,9.2-0.4,10.9c0,0-2.8-4.6-2.5-3.8c0.2,0.5,3.5,7.1,3.8,7.6c1.4,3,3.3,5.9,4.3,8.7c-0.5,0.3-0.4,1.2-0.5,1.2
			c-0.2-0.1-0.6-1.7-1.9-1.5c-3.1-5.3-6.3-10.6-8.3-16.7c0.8,7.6,7.5,15.4,7.3,18.6C102.5,83.1,101.5,82.6,100.9,82.9 M96.1,55.2
			c-2.2,8-1,11.2-1.7,17.7c-0.7-0.4-0.8-2.2-1.9-0.5c0.9-6.6,1.8-9.5,2.8-16.2c0.2-1.1,0.1-2.2,0.2-2.8
			C95.7,52.8,96.6,53.6,96.1,55.2 M94.9,54.3c-0.3,3.7-0.6,4.7-1.2,7C93,63.8,92.2,68,92,73.5c-0.5-0.4-0.2-1.7-1.1-1.6
			c-0.1,0.1-0.2,0.3-0.3,0.6c-0.3-3,0.9-6.7,1.9-10.7c1.2-4.5,1-7.6,1.2-8.9C93.8,51.5,95,52.9,94.9,54.3 M91.6,60.8
			c-1.7,6.7-1.8,9.7-1,13.2c-0.4-0.4-0.7-1.9-1.7-1.7c-0.7,0.4-1,1.8-1.1,2.5c0-9.3,5.1-18.4,3.2-23.9C94.4,51,92,59.3,91.6,60.8
			 M90.3,51.3c1,2.4,0.2,5.3-0.7,8.9c-1.1,4.2-2.5,9.5-1.7,16c-4.5-0.9,2.5-18.1,1.8-23c-0.1-2.2-1.1-3.7-3.5-3.7
			C88.3,49.1,89.4,49.2,90.3,51.3z M86.8,65.3c-1.2,3.7-2.2,7-1.9,8.6c-0.5-0.1-0.9,0.3-1,0.7c-0.6-2.3,2-9.3,2.9-11.5l0.1-0.2
			c0.3-0.5,1.7-3.9,1.8-6.2C88.9,57.6,89.1,58.7,86.8,65.3 M86.4,63.8c-1.3,3.5-5.4,11.6-1.2,12.9c1.3,1.1,0.1,1.4-0.8,0.9
			c-0.6-0.5-1.6-1.8-2.4-1.2C83.1,68.3,82.8,68.4,86.4,63.8 M82.5,86.4l0.5,7.8c-0.2,0.3,0,0.8,0.1,1.1c0.5,1,1.1,1.9,1.6,3
			c-1.8-2.9-2.9-3.8-3-7.4C81.9,88.1,82,88.2,82.5,86.4 M110.5,83.5c-0.5-2.1-3.4-3.7-4.5-8.7C105.6,76.4,109,82.4,110.5,83.5
			 M119.9,71.6c-0.4,2.9-4.7,11-5.7,11.5c-1.6,0-5.2-14.3-7.5-22.4c0.6,0.6,1.1,1.3,1.6,2c1.3,5.3,2.7,12.3,4.4,12.5
			c2.7,0.1,5.3-11.7,5.5-14.1c2.5,0,5.6,14.6,6.5,18c-0.4-0.6-1.8,0.6-1.8-0.1c-0.1-0.7,1.8-1,1.2-2.7c-0.4-0.6-1.2-0.2-1.6,0.1
			c0.1-0.5,0.1-1.1,0.2-1.6c-2.4,10.3,4.2,23.4,4.9,28.8c-0.7-0.7-1.1,0.6-1.6-0.1c-0.2-0.8,1.7-0.9,0.8-2.1c-0.1,0-0.6-2.1-0.7-2.2
			c-0.1,0,0.3,2,0.3,2c-0.6,0-0.8,1-1.4,0.4c-0.3-0.6,1.1-1,1-1.8c0-0.1-0.4-2.4-0.5-2.5c-0.1-0.1,0.2,2.1,0.2,2.1
			c-0.3-0.1-0.5,0-0.8,0.3c-0.1,0.2-0.5,0.7-0.7,0.5c-0.7-0.7,1.7-1.8,0.9-3.4c-0.1-0.1-0.8-3.3-0.9-3.4c-0.1-0.1,0.3,3,0.2,3
			c-0.6,0-1.1,0.7-2-0.1c-0.7-1.2,2.1-1.4,1.5-3c0-0.1-0.7-3.7-0.8-3.8c-0.1-0.1,0.4,3.2,0.3,3.2c-0.7-0.4-1.3,1.3-2.2,0.6
			c-0.5-0.8,2.3-1,1.7-2.1c-0.1-0.1-0.6-4.7-0.6-4.7c-0.1,0,0.2,4.4,0.2,4.4c-0.5,0.1-0.9,1.1-1.4,0.8c-0.5-0.3,1.3-1.4,0.9-2.1
			c0-0.1-0.2-5.9-0.3-5.9c-0.1-0.1-0.1,5.6-0.1,5.6c-0.5,0-0.8,0.7-1.3,0.4c-0.3-0.5,1.4-0.9,0.9-1.9c-0.1-0.1-0.3-0.5,0.4-7.8
			c0-0.3-1.1,7.6-1.1,7.5c-0.9,0-2.8,0.2-4.3-0.4c-0.5-0.3-1-0.6-1.5-0.9c0.6-0.2,4.2,1.3,4.4-0.7c0-0.2,0-0.3,0-0.5
			c1.1-3.1,3.8-8.7,3.8-11.4c0-1.9-0.7-3.7-1.7-5.3c1.8,10.3-1,6.6-2.1,16.7c-0.4-0.9-2.5-0.1-3.3-0.1
			C113.1,84.9,119.9,75.8,119.9,71.6 M126.7,85.7c-0.4-1.4-0.5-3.3-0.5-3.3c0.2-0.3,0.2-0.8,0-1.3l-5.5-19.2
			c5.5,3.5,7.8,15.1,9,19.8c0.4,2.6,2.2,12.3,3.6,14.8c5.9,11.9,3.6,17.8,6.2,29.4c2,1.6,5.7,7,4.1,6.9c0.1,0.7-0.2,0.9-0.7,0.9
			c-0.1,0.5-0.4,0.7-0.9,0.6l0,1.8l-0.7,1.2l-1.2,0.9c-0.5-0.8,0.3-1,0.4-1.4c0.2-0.6,0-1.1-0.1-1.6c-0.1-0.6-0.1-0.7-0.9-1.7
			c-0.1-0.1-3.8-4.2-5.1-5.8c-0.3-0.4,0.2-2.5,0.2-2.5c-1.3-0.5-4.1-13.3-5.6-18.1c-0.4-1.2-0.8-2.4-1.1-3.6
			c-0.7-3.6-1.1-7.6-3.5-11.6c0-0.9,0.1-2.5,1.3-3.6C126.6,87.4,127,86.8,126.7,85.7L126.7,85.7z M125.7,83l0.8,2.4
			c-0.5-0.4-1.2-0.3-1.8,0.1c-0.7,0.5-1.4,0.5-1.8-0.4c-0.1-1.1,0.7-1.3,1.6-1.5C124.9,83.4,125.3,83.2,125.7,83 M109.3,64.2
			c0.3,1,1,4.9,2.9,5.4c4.1,0.1,3.6-9.9,6-8.4l-0.1,0c-1.4,4.8-4.1,12.7-5.3,12.6c-1.5,0.3-2.9-6.4-4.2-10.5
			C108.9,63.5,109.1,63.8,109.3,64.2 M112.3,68.6c-1.1,0.2-2-2.3-2.8-4.1c0.4,0.6,1.1,1.1,1.6,1.8c1.4-0.8,1.9-2.2,4.1-4.9
			c0.6-0.5,0.9-0.6,0.9-0.4C117,62.4,113.4,68.3,112.3,68.6 M116.6,42.7c-1.8,1.3-3.8,0.9-5.7,0C114.5,44,116.5,42.3,116.6,42.7
			 M110.6,42.8c1.9,1,4.1,1.5,6,0.1c0.1,0.3,0.1,0.5,0.1,0.7c-2,1.2-4,0.4-5.9-0.6L110.6,42.8z M99.8,25.6c-0.2,0.2-0.3,0.5-0.4,0.7
			c-0.7-0.7-4.3,0.1-4.8,4c-0.3,1.3-0.3,2.8-0.1,4.2c-0.3-0.7-0.4-1.7-0.4-2.6C94.1,25.6,100.3,25.1,99.8,25.6L99.8,25.6z
			 M99.7,26.2c0.1-0.3,0.3-0.5,0.6-0.7l0,0c0.2,0,2.5-1.1,3.4-0.5c1.2,1.1,2.5,1.5,4,2.1c0.6,2.3,5.2,4.5,5.2,7.7
			c-0.1-0.1-0.2-0.2-0.3-0.3c-0.5-1.7-1.6-2.8-2.7-3.9h0c-1-1-1.9-1.9-2.6-3.3c-1.4-0.5-2.7-1.3-3.8-2.4c0.2,1,3.2,2.4,3.7,2.6
			c0.7,1.4,1.7,2.3,2.6,3.2h0c1,1,2,2,2.6,3.6c-0.1-0.1-0.2-0.2-0.3-0.2c-1.4-2.3-3.7-3.3-5.2-6.4c-2.4-0.8-3-1.9-3.5-2.6
			c-0.3-0.1-0.4,0.2-1.3,0.2C101.1,25.4,100.1,25.4,99.7,26.2 M114.8,48.8c-1.5,0.2-2.7-1.1-3.4-2.2c0-0.2-0.1-0.4-0.1-0.5
			c1,1.3,2.2,2.4,3.9,2.4C115.1,48.5,115,48.6,114.8,48.8 M111.3,49.4l0-0.6c0.2,0.5,0.6,0.9,1,1.2c0.4,0.3,0.9,0.5,1.4,0.4
			C112.9,51.4,111.7,50.3,111.3,49.4 M111.3,49.8c0.4,0.8,1,1.2,1.9,1.1c-0.2,0.2-0.4,0.4-0.7,0.6c-0.2,0-0.5-0.2-0.7-0.4
			c-0.2-0.2-0.4-0.4-0.5-0.7L111.3,49.8z M114.3,41.9c-1.2,0.5-2.3,0.3-3.6-0.1c-0.1-0.1-0.1-0.2-0.2-0.3c1.1,0.4,2.5,0.4,3.5-0.2
			C114,41.5,114.1,41.7,114.3,41.9 M111,42.1c1.2,0.3,2.2,0.5,3.4,0c0.4,0.4,1,0.5,1.5,0.5C113.1,43,112,42.9,111,42.1 M111,43.3
			c1.8,1,3.7,1.6,5.6,0.5C116.2,45.6,112.4,44.8,111,43.3 M116.3,46.8c-1.9,0.5-3.9-1.2-5.2-2.4l0-0.1c1.3,1,3.6,2.6,5.3,1.6
			C116.5,46.1,116.4,46.5,116.3,46.8 M111.2,44.6c1.2,1.2,3.2,2.7,5.1,2.3c0,0.1-0.1,0.3-0.2,0.4C113.6,47.8,111.5,45.2,111.2,44.6
			 M99.3,26.6c-1.4,0.2-2.5,0.7-3.3,1.7c-0.7,1-1.2,2.4-1.2,4.5c-0.1,0.6,0,1.7,0,2.2c-0.5-2-0.3-6.9,1.8-7.8
			C97.9,26.5,99.3,26,99.3,26.6L99.3,26.6z M95.1,32.3c0.1-3,1.1-5,4.2-5.5c-0.3,0.9-2.1,1-2.6,1.4c-0.2,1.1-0.5,1.6-1,2.2
			C95.4,31,95.5,32,95.1,32.3 M99.7,26.8c1,0.1,2-0.2,2.6-0.4c0.4-0.1,0.6-0.2,0.6-0.2c0.7,1.3,1.8,2.2,3.4,2
			c-0.9-0.2-2.1-0.2-3.2-2.1c-0.1-0.2-0.4-0.1-0.8,0.1c-0.6,0.2-1.5,0.5-2.5,0.4l0-0.1c0.4-1.3,2.2-0.6,3.4-0.9
			c0.6,1.4,2,1.9,3.4,2.3c1.1,2.7,3.6,4.1,5.2,6c-2-1.3-4.6-2.8-5.2-5.3c-1.7,0.2-2.8-0.1-3.5-1.9C102.1,26.9,100.1,27.9,99.7,26.8
			 M113.5,35.5c0.4-2.7-1.2-4.2-2.8-5.8c-1-1-2-1.9-2.6-3.2c0.1,0,0.2,0,0.3,0c1.2,3,6.3,3.9,5.5,9.4
			C113.8,35.7,113.6,35.6,113.5,35.5 M107.9,26.4c0.6,1.3,1.7,2.4,2.7,3.4c1.6,1.6,3.1,3,2.8,5.6c-0.1-0.1-0.2-0.2-0.4-0.4
			c0.8-2.7-4.5-5.7-5.2-8.1c-1.6-0.6-2.8-1.1-4-2.2c-1.1-0.4-2.9,0.5-3.2,0.5C103.7,22.8,105,26,107.9,26.4 M114.8,36.9
			c0.8-3.6-1.2-5.7-2.5-7.1c-0.2-0.3-0.5-0.5-0.7-0.7c-0.6-0.5-1.3-1.1-1.5-1.8c0.3,0.2,0.5,0.3,0.8,0.5c0.2,1.6,5.3,3.3,4.4,9.7
			L114.8,36.9z M109.9,27.2c0.1,0.8,0.9,1.5,1.5,2c0.3,0.2,0.5,0.4,0.7,0.7c1.3,1.3,3.2,3.3,2.5,6.8c-0.3-0.3-0.5-0.6-0.4-0.6
			c0.9-5.6-4.2-6.8-5.7-9.7C109,26.7,109.5,26.9,109.9,27.2 M116.2,38.5c0.4-2.6-0.3-5.2-1.7-7.5c1.6,2.1,2.4,4.7,2.2,8.1
			L116.2,38.5z M112.9,29.3L112.9,29.3c0.7,0.6,1.9,2.2,2.7,4.4c0.5,1.4,0.7,2.9,0.5,4.6c-0.2-0.2-0.3-0.4-0.5-0.6
			c1.2-6-4.1-8.5-4.3-9.7C111.8,28.4,112.3,28.8,112.9,29.3L112.9,29.3z M112,37.8c-0.3,1-1,1.6-2,1.9l0-0.2c0.9-0.1,1.1-1,1.3-1.7
			C111.5,37.6,111.7,37.7,112,37.8 M110,39.9c1.1-0.3,1.8-0.9,2.1-2c0.2,0.1,0.4,0.3,0.5,0.5c-0.3,0.8-1.8,1.7-2.6,1.7L110,39.9z
			 M113.3,39.2c-0.9,1.1-1.8,1.4-3.2,1.1l0-0.1c0.9,0,2.5-0.7,2.9-1.5C113.1,38.9,113.2,39.1,113.3,39.2 M110.1,40.6
			c1.4,0.3,2.4-0.1,3.3-1.2c0.1,0.1,0.2,0.5,0.2,0.6C112.7,40.9,111.4,41.6,110.1,40.6L110.1,40.6L110.1,40.6z M113.9,41.1
			c-1,0.7-2.5,0.6-3.6,0.2c-0.1-0.1-0.1-0.2-0.2-0.4c2.3,1.6,3.5-1.4,3.7-0.3C113.9,40.8,113.9,41,113.9,41.1 M111.3,50.8
			c0.2,0.4,0.6,0.7,1,0.8c-0.3,0.2-0.7,0.4-1,0.5C111.3,51.7,111.3,51.3,111.3,50.8 M113.9,50.2c-0.5,0.1-1,0-1.4-0.3
			c-0.5-0.4-0.9-1-1.1-1.6l0-0.8c0.4,0.6,0.5,2.2,2.8,2.2C114.1,49.8,114,50,113.9,50.2 M115.4,48.2c-1.8,0-3.1-1.2-4.1-2.6
			c0-0.3-0.1-0.6-0.1-0.8c0.5,1.1,2.5,3.6,4.7,2.8C115.8,47.8,115.6,48,115.4,48.2 M116.4,45.6c-1.7,1-4.1-0.6-5.3-1.7
			c0-0.1,0-0.2-0.1-0.3c0.7,0.9,2.7,2.2,5.3,1.2C116.4,45.2,116.4,45.4,116.4,45.6 M116.5,40.5c-1.6-2.1-2.8-4.4-5.3-5.3
			c-2.2-0.8-5-1.1-5.7-1.1c-1.9-0.1-4.5,0.6-6.1-0.1c-0.4-0.2-1.3-0.5-1.8-0.4c-0.6,0.2-1,0.6-1.1,1.2c-1.7,6.4-0.8,0.6-0.5,0.3
			c0.8-0.9,1-2.3,1.7-2.6c1.6-0.5,2.8,0,5.4-0.2c1.3-0.1,2.2-0.2,2.9-0.1c1.4,0.2,2,0.8,6.8,2.7C114.2,36.6,116.8,39,116.5,40.5
			L116.5,40.5z M108.1,26.2c-1.3-0.3-2.9-1.3-4.5-2C105.3,24.2,106.8,25.6,108.1,26.2 M111.5,36.8c-0.2,0.2-0.3,0.6-0.4,1
			c-0.2,0.8-0.6,1.5-1.5,1.5c0.9,3.8-3.3,3.1-6.8,3.3c-1,0.1-2.7-1-4.4-0.4c-0.7,0.3-1.1,1.2-1.2,2.2c-0.4-0.4-0.3-4.4,3.7-3.5
			c-2.5-1.2-3.6,1-3.8,1.2c-1.1,1.5-0.9-1.9-1.4-3.3c1.1-1.6,0.7-4.5,2-4.9c0.3-0.1,0.7,0.1,1.4,0.5c2.1,1.6,3.1,0.5,6.7,0.2
			c1.9,0.1,3.3,0.8,3.6,0.9c0.2,0,0.1,2.8,0.4,2.9c0.6-0.8,0-3.1,1.3-2.1c-0.8-0.3-0.4,1.3-1.2,2.1
			C111.1,39.1,110.5,36.2,111.5,36.8L111.5,36.8z M97.2,33.7c0.6-0.3,1.3-0.5,2-0.5c0.5,0,1.1,0.6,1.8,0.6c1.7,0,3.8-0.4,4.8-0.4
			c2,0.2,4.6,1.4,6.9,2.1c-3.8-1.7-5.7-2.3-6.7-2.4c-0.6-0.1-3,0.3-4.6,0.2c-1.3-0.1-1.7-0.3-2.2-0.2C98.2,33.1,97.5,33.4,97.2,33.7
			L97.2,33.7z M112.4,34.7c-3-1.1-5-2.4-6.8-2.7c-3.9-0.6-7.2-0.2-8,0.4c-0.9,0.4-0.6,1.1-2.3,2.8c0-0.8,0.2-1.2,0.7-1.9
			c1.6-2.4,4.4-2.6,7.1-2.4C105.3,31.2,110.6,33.2,112.4,34.7 M95,34.6c-0.1-0.6,0-1.2,0.1-1.9c0.6-0.5,0.5-1.6,0.8-2.2
			c0.7-0.5,1.1-1.4,1.1-2c0.7-0.5,2.3-0.3,2.5-1.6c0.4,1.2,2.3,0.5,3.1,0.3c0.6,1.3,2.1,2.1,3.5,1.9c0.4,1.7,2.4,2.9,3.8,3.9
			c-0.1,0-0.2-0.1-0.3-0.1c-1.6-1.2-4.2-2.6-6.5-2.8c-2.8-0.2-5.7,0.2-7.4,2.7C94.9,33.7,95,34.7,95,34.6 M101.8,39.4
			c-0.2,0-0.6,0.3-0.8,0.3c-1.1,0-2.1-0.1-2.6,0.2c-0.5,0.3-1,0.8-0.9,1.7c0.3-1.3,0.9-1.2,1.2-1.3c0.7-0.5,1.5-0.5,2.4-0.5
			C101.2,39.7,101.5,39.5,101.8,39.4 M98.6,38.3c-0.2,0-0.3,0.3-0.4,0.4c-0.1,0.1-0.4-0.1-0.5,0c-0.2,0.3-0.7,1.8-0.4,1.9
			C98,38.9,99,38.9,100,39c0.5,0.1,1.1,0.3,1.6,0.1C101,38.6,99.4,38.1,98.6,38.3 M99.7,35.9c-0.5-0.3-1-0.1-1.5-0.3
			c-0.4-0.2-0.9-0.3-1.2-0.1c-0.4,0.2-0.2,0.7-0.3,1.1c0,0.4-0.3,1.3,0.2,1.5c0.2,0.1,0.4,0,0.5-0.1c0,0-0.1-0.1-0.1-0.2
			c-0.1-0.2,0-0.7,0.1-0.8c0.4-0.5,0,1,0.8,0.4c0.9-0.6-0.1-0.4-0.1-0.8c0-0.1,0.4,0.1,0.7,0c0.5-0.1,0.9,0.1,0.7,0.4
			C100.2,37,100.4,36.5,99.7,35.9 M125.8,80.8c-1.3-0.6-2.3,1.7-3,1c-0.1-0.1,0.2-0.3,0.5-0.5c1.7-0.9,1.6-1.6,1.5-1.9l-0.4-3.2
			L125.8,80.8z M126.7,105.3c0.4-0.1,0.7-0.4,0.9-0.8c0,0.5-0.1,0.9-0.3,1.1C127.1,105.9,126.9,105.7,126.7,105.3 M94.8,89.4
			c2.9-3,7.5-4.4,11.6-4.5c3.6-0.1,7.5,1,10,3.2c1.4,1.2,2.8,2.5,3.4,3.6c0,0,0.5,3.2,0.4,2.9c-2.6-4.7-7.3-7.3-11-7.9
			C102.3,85.7,94.6,89.7,94.8,89.4 M75.3,162c-0.1-1.8,1.7-7.1,0.4-8.4c-3.4-2.4-2.3-3.2-1.6-8.6c-0.2-15.1,3.9-33.3,4.6-49.1
			c0.9,5.4,4.1,7.2,5.4,5.9c0,0,0.1,5.6-4.5,6.5c-0.8,0.2-1.5,0.4-2.1,0.6l-0.3,2.3l-0.3,2.3c0.7,0.3,1.5,0.4,2.1,0.6
			c1.3,0.3,2.3,1,2.6,3.5c-0.2,2.8-1.3,2.5-2.8,3c-1.2,0.5-2.5,1.4-3.1,1.8l-0.5,4c2.6,3.2,5.7,2.7,5.1,7.3
			c-0.3,2.1-1.2,2.6-2.4,3.1c-1.3,0.4-3,1.6-3.9,2.9l-0.1,2.2l0,2.3c4.4,3.7,7.8-0.1,9,2.1c-0.3,4.2-8.4-1.2-8.5,4.4
			c0,7.5,7.8,0.3,9.5,3.5C85.5,166.5,75.3,162,75.3,162 M140.1,138.6L140.1,138.6l0.7,3.3l-0.5,0.2l-1.5-8.3l-5.5-6.5l0.5-0.3
			l5.4,6.7L140.1,138.6z M140,142.1l-2.6-1.9l1.1-1.8c-0.1-1.2-0.2-2.7-0.3-3.9c-0.7-0.9-1.4-1.7-2.1-2.6l-1.8,0l-0.6,1.1l-1.3-5.4
			l0.7-0.1l5.5,6.5L140,142.1z M124.6,158.7l-7,5.8l6.4-7.2l13.8-21.7l0.1,2.3L124.6,158.7z M121.2,155l-0.1-50.7
			c0.1,0.5,0.3,1.1,0.5,1.9h0c0,0.2,0.1,0.3,0.3,0.4c0.4,6.2,0.8,44.6-0.2,47.4L121.2,155z M122.8,107.5c1.9,1,0.4,2.6,1.8,3.3
			c0.8,1.6-0.7,36.2-1.9,40.8L122.8,107.5z M125,147.2l0.4-35.5c0.6,0.3,0.8,0.3,1.5,1.5l-0.7,32L125,147.2z M127.4,114
			c0.9,4.1,1.4,8,1.6,13.6l-0.2,13.2C125.7,148.2,128,123.2,127.4,114 M125.2,109.3c0.2,0,0.4-0.2,0.5-0.3c0.2-0.3,0.2-0.7,0.2-1.1
			c-0.4-2.3-1.1-4.7-1.7-7c1.6,3.4,2.3,5.1,3.6,8.9c0,0-0.3-0.3-1.2,0.4c-0.4,0.3-0.9,0.6-1.5,0.4
			C124.1,110.2,125.1,109.4,125.2,109.3 M119.4,99.9c0.3-0.8,0.5-1.7,0.3-2.1l-1.4-5.2c2.3,3.3,2.3,4.8,3.4,8.8
			c-0.7-0.2-1.3,1.1-2.3,0.4C119.5,101.8,118.8,101.1,119.4,99.9 M121.7,106.2L121.7,106.2c-0.1-0.6,0.2-1.6,0.3-2.2
			c0.2-0.9,0.4-1.7,0.3-2.2v0l-1.4-6.1c3.2,5,3.2,6.8,4.2,10.6c-0.3-0.3-0.6-0.7-1.4-0.2c-0.6,0.5-1,1.2-1.8,0.4
			C121.8,106.4,121.7,106.3,121.7,106.2 M96.5,110.7c-1-3.1,0.2-8.6,0.9-11.2c0,0-1.8,4-1.5,10.8c-0.7-0.4-1.3,0-2.1,0.5
			c-1.1-6.2,4.3-22.5,8.4-22.9c-2.9,6-4.2,12.4-4.1,19c-0.2,0.7,0.4,1.2,0.9,1.6C99.7,110.5,97.8,112,96.5,110.7 M84.1,153.5
			c-2.1-3.4-7.8,0.8-8-2.6c1.1-2.9,7.1,0.9,7.2-4.9v0c0.2-2-1.5-2.4-3.3-2.5c-1.7-0.1-3.6-0.2-4.2-2.3c-0.4-5.7,5.2-2.5,5.6-7.4
			l0-2.5c0.2,0.8,0.7,1.6,1.4,1.7l0.9,12.6C83.8,152.6,84.4,153.8,84.1,153.5 M85.4,118.5c0-8.2,2.5-25.8,10.4-28.8
			c-5.9,8.7-8.2,17.2-8.2,27.6c-0.1,0.4,0.2,1.1,0.5,1.4c0.3,0.3,1.6,0.3,1.4,1c-0.5,0.6-1.4,0.1-2.4-0.4
			C86.1,118.7,86.1,118.2,85.4,118.5 M84.3,119.5c-0.1,0.7,0.5,1.5,1.2,2.3l0,0c0.9,1,2,2.3,1.8,3.9c-0.6,2.8-3.5,3.4-3.6,2.5
			c-1.9-16.7,3.6-33.1,8.3-36.9C85.9,98.6,84.7,110.3,84.3,119.5 M88.9,116c-1.2-7.4,4.7-25.8,9.8-27.3c-3.5,7.3-7.1,15-6.1,23.3
			c0,1.3,2.1,0.6,2.5,1.6c0.3,0.9-0.4,1.7-0.9,2.3c-1.8,1.7-2.4,1-3,0.4c-0.1-0.1,0-7.3-0.1-7.3c-0.1-0.1-0.4,6.9-0.5,6.9
			C90.1,115.7,89.6,115.7,88.9,116 M105.3,87.6c-1.1,2.7-3.9,13.3-3.2,15.3c0.1,0.2,0.2,0.4,0.3,0.5c0.4,0.6,1.9,0.5,2.1,1.4
			c0.6,1.3-0.3,2.2-1.5,2.2c-1,0-1.4-1.4-2.3-1.5c-0.4-2.6,0.8-8.1,0.7-7.9c-1,3-1.2,7.8-1.3,7.7c-0.4,0-0.7,0.1-1,0.4
			C99.3,101.6,100.5,87.3,105.3,87.6 M107.2,87.4c-0.2,2.5-0.3,14.9-2.7,16.4c2.3-3.4-0.4-5.3-1.2-3.9
			C104.2,96.7,104.6,88,107.2,87.4 M108.8,87.6l0.1,13.9c-0.5-0.6-1.4-0.8-2.1-0.4C107.1,99,107.7,87.9,108.8,87.6 M131.4,123.4
			l0.1,13.2l-2,3.5l0.1-10c1.3-1.1,0.7-2,0.2-2.6c-0.1-0.2-0.2-0.3-0.2-0.4c0-0.5,0.5-0.9,0.8-1.2
			C130.8,125.7,131.4,125.1,131.4,123.4 M130.7,118.3l0.6,4.8c-0.3-0.3-1-0.1-1.6-0.5C129.5,121.8,131,120.7,130.7,118.3
			 M129.6,112.8l1,5.2c-0.6-0.2-2.4,0-2.3-0.8c0-0.5,0.4-1.2,0.7-1.7C129.2,115,129.7,114.4,129.6,112.8 M129.5,112.7
			c-0.7-0.4-1.4,1.1-2.1,0.6c-0.5-0.8,1.4-1.8,1-2.9l-1.2-4.4C128.3,107.2,128.8,110,129.5,112.7 M119.1,97.4
			c-0.5-0.1-1.1,0.4-1.6,0.1c-0.2-0.1-0.1-0.3,0-0.6c0.1-0.3,0.1-1-0.2-1.2l-1.4-5.4C118.1,92.2,117.9,93.6,119.1,97.4 M117,95.6
			c-0.7-0.3-1.5,0.6-2.2,0.3l-1.4-6.9C115.8,90.6,115.6,92.3,117,95.6 M114.4,94.8c-0.1-0.3-0.4-0.6-1.2-0.7v0
			c-0.4,0-0.7,0.1-0.9,0.4l-0.9-6.4C113.3,88.9,113.3,91.7,114.4,94.8 M111.9,95.5c0.2,1.1,2,0.6,1.7,2.1c-0.3,0.6-0.9,1.3-1.6,0.7
			c-0.1-0.1-1.4-5.3-1.5-5.4c-0.1-0.1,0.9,4.8,0.8,4.8c-0.6-0.2-1.3,0.1-1.7,0.8l0.1-10.5C111,87.6,111.7,94.4,111.9,95.5
			 M118,163.6l3.7-8.5l13-22.8l0.9,0.1c-1.5,2.2-13.8,23.5-13.8,23.6L118,163.6z M137.6,134.6l-14.4,22.1l-4.5,5.8l3.4-6.5
			c0.1-0.2,13.1-22.2,14-23.3L137.6,134.6z M133,127l0.6-0.1l-0.5,0.4l-0.7,0.1L133,127z"/>
		<path id="XMLID_1727_" class="st5" d="M65.2,77.2c0.6-1.7,16.7-2.1,16.5,0.3C81.5,78.8,65,78.9,65.2,77.2 M46,77
			c0.6-1.7,16.7-2.1,16.5,0.3C62.3,78.6,45.8,78.7,46,77L46,77z M54.7,82.6c1.6-0.1,3.4,0.2,4.8-0.5c2.4-1.1,4.4-2.4,4.3-4.1
			c-0.2-2.1-3.7-3.2-9-3.1c-6.5,0.2-10,1-9.9,2.9c0,1.9,1.5,3.1,4.1,4.2C50.6,82.8,52.5,82.6,54.7,82.6 M74.1,82.9
			c1.6-0.1,3.1,0.2,4.6-0.3c2.5-0.8,4.4-2.6,4.4-4.4c-0.2-2.1-3.7-3.2-9-3.1c-6.5,0.2-10,1-9.9,2.9c0,1.8,1.7,3.7,4,4.5
			C69.7,83.1,71.7,82.8,74.1,82.9"/>
		<path id="XMLID_1709_" class="st5" d="M67.2,37.7l0,3.2l0.4,0c0,3.3,0,6.6,0,9.9l-1.6,0v-9.9l0.4,0l0-2l-0.3,0.4l0,1.4l-0.7,0v6.7
			l-5.8-0.2c0,0.5,0,1.4-0.6,1.5l0-0.6l-0.8,0l0,0.5c-0.8-0.2-0.8-1.3-0.7-1.9l-1,0c-0.1,1.3,0.1,2.8,1.7,3.1l0,1.1l0,0.1h0.1l0.1,0
			l0,0.3l-0.3,0l-0.1,0.9l-0.7-0.3l-0.5,1.1L57,53l-0.4,0.8l-0.4-0.1l-0.3,1.1l0.3,0.1l-0.3,0.8l-0.3-0.1l-0.5,1l0.4,0.2l-0.4,0.9
			l-0.3-0.1l-0.5,1l0.3,0.1l-0.4,0.9l-0.3-0.1l-0.5,1l0.3,0.1l-0.4,0.9l-0.3-0.1l-0.5,1l0.3,0.2l-0.4,0.9l-0.3-0.1l-0.5,1l0.3,0.2
			l-0.4,0.9l-0.3-0.1l-0.4,1l0.3,0.1L51,67.3l-0.3-0.1l-0.4,1l0.3,0.1l-0.3,0.8l-0.3-0.1l-0.4,1l0.3,0.1l-0.4,0.9l-0.3-0.1l-0.4,1
			l0.3,0.1l-0.3,0.7l-0.3-0.1l-0.4,1l0.3,0.1l-0.3,0.8l-0.4-0.2l-0.4,1l0.4,0.2l-0.4,0.9l0.2,0.1l-0.5-0.2l-0.4,1l1,0.4l0.4-1
			l-0.3-0.1l0.4-0.9l0.2,0.1l0.4-1l-0.2-0.1l0.3-0.8l0.4,0.1l0.4-1L49.1,73l0.3-0.7l0.3,0.1l0.4-1l-0.3-0.1l0.4-0.9l0.3,0.1l0.4-1
			l-0.3-0.1l0.3-0.8l0.3,0.1l0.4-1l-0.3-0.1l0.4-0.9l0.3,0.1l0.4-1l-0.3-0.1l0.4-0.9l0.3,0.1l0.5-1l-0.3-0.1l0.4-0.9l0.3,0.1l0.5-1
			l-0.3-0.1l0.4-0.9l0.3,0.1l0.5-1l-0.3-0.1l0.4-0.9l0.3,0.1l0.5-1l-0.3-0.1l0.4-0.9l0.3,0.1l0.5-1l-0.3-0.1l0.4-0.9l0.3,0.1
			l0.3-1.1L57.1,54l0.3-0.8l0.2,0.1l-0.1,1l0.3,0l-0.1,1l-0.4,0l-0.1,1.1l0.3,0l-0.1,1l-0.4,0l-0.1,1.1l0.3,0l-0.1,1l0.4,0.1l0.1-1
			l0.3,0l0.1-1.1l-0.3,0l0.1-1l0.4,0l0.1-1l0.2,0l0.1,0.8l-0.4,0.1l0.2,1.2l0.3-0.1l0.1,0.9l-0.4,0.1l0.2,1.2l0.3-0.1l0.2,0.9
			L59,60.6l0.2,1.2l0.3,0l0.2,0.9l-0.4,0.1l0.2,1.2l0.3-0.1l0.2,1l-0.4,0.1l0.2,1.2l0.3-0.1l0.2,0.9L59.9,67l0.2,1.2l0.3,0l0.2,0.9
			l-0.3,0.1l0.2,1.2l0.3,0l0.2,0.9l-0.3,0.1l0.2,1.2l0.3,0l0.1,0.9l-0.4,0.1l0.2,1.2l0.3-0.1l0.1,0.8l-0.3,0.1l0.2,1.2l1.1-0.2
			L62.2,75l-0.4,0.1l-0.1-0.8l0.4-0.1l-0.2-1.2l-0.3,0.1l-0.1-0.9l0.4-0.1L61.6,71l-0.3,0.1l-0.2-0.9l0.4-0.1l-0.2-1.2L61,69
			l-0.2-0.9l0.4-0.1L61,66.8l-0.3,0.1L60.5,66l0.4-0.1l-0.2-1.2l-0.3,0.1l-0.2-1l0.4-0.1l-0.2-1.2l-0.3,0.1l-0.2-0.9l0.4-0.1
			l-0.2-1.2l-0.3,0.1l-0.2-0.9l0.3-0.1l-0.2-1.2l-0.3,0.1l-0.1-0.9l0.4-0.1l-0.2-1.2l-0.3,0.1l-0.1-0.8l0.4-0.1l-0.2-1.2l-0.3,0.1
			l0-0.3l0.4-0.1L59,52.8l-0.5,0.1l0.1-0.4l0.4,0.1l0.1-1.1l-0.4,0l0-0.3l0.2,0l0.1,0l0-0.1l0-1c0.6,0,0.9-0.5,1.2-0.5l5.2,0.3v1.8
			h2.7l0-1.7c0.6,0,4.2,0,4.4,0.1c0.1,0.5,0.7,1,1.2,1l0,1.2l0.2,0l0,0.5l-0.3,0l0,0.9l-0.7-0.2l-0.4,1.1l0.3,0.1l-0.3,0.9l-0.4-0.1
			l-0.2,1.1l0.3,0.1L72,57.3l-0.3-0.1l-0.3,1.1l0.4,0.1l-0.3,1l-0.3-0.1l-0.3,1.1l0.3,0.1l-0.3,1l-0.3-0.1l-0.3,1.1l0.3,0.1
			l-0.2,0.9L70,63.2l-0.3,1.1l0.4,0.1l-0.3,1l-0.3-0.1l-0.3,1.1l0.3,0.1l-0.3,1l-0.3-0.1l-0.3,1.1l0.3,0.1l-0.3,0.9l-0.3-0.1
			L68,70.4l0.3,0.1l-0.2,0.9l-0.3-0.1l-0.3,1.1l0.3,0.1l-0.2,0.9l-0.3-0.1l-0.3,1.1l0.3,0.1L67,75.2l-0.4-0.1l-0.3,1.1l1.1,0.3
			l0.3-1.1l-0.3-0.1l0.2-0.8l0.4,0.1l0.3-1.1L68,73.5l0.2-0.9l0.4,0.1l0.3-1.1l-0.3-0.1l0.2-0.9l0.3,0.1l0.3-1.1l-0.3-0.1l0.3-0.9
			l0.3,0.1l0.3-1.1l-0.3-0.1l0.3-1l0.3,0.1l0.3-1.1l-0.3-0.1l0.3-1l0.3,0.1l0.3-1.1l-0.3-0.1l0.2-0.9l0.3,0.1l0.3-1.1l-0.3-0.1
			l0.3-1l0.3,0.1l0.3-1.1l-0.3-0.1l0.3-1l0.3,0.1l0.3-1.1l-0.3-0.1l0.3-0.9l0.3,0.1l0.2-1.1L73,55.5l0.2-0.8l0.2,0.1l0,1l0.3,0l0,1
			l-0.4,0l0,1.1l0.3,0l0,1l-0.4,0l0,1.1l0.4,0l0,1l0.5,0l0-1l0.3,0l0-1.1l-0.3,0l0-1l0.4,0l0-1l0.2-0.1l0.2,0.8l-0.4,0.1l0.4,1.1
			l0.3-0.1l0.2,0.8l-0.4,0.1l0.3,1.1l0.3-0.1l0.3,0.9l-0.3,0.1l0.3,1.1l0.3-0.1l0.3,0.9l-0.4,0.1l0.3,1.1l0.3-0.1l0.3,0.9L76.8,66
			l0.3,1.1l0.3-0.1l0.3,0.9l-0.3,0.1l0.3,1.1l1.1-0.3l-0.3-1.1l-0.3,0.1l-0.3-0.9l0.4-0.1l-0.3-1.1l-0.3,0.1l-0.3-1l0.3-0.1
			l-0.3-1.1L77,63.6l-0.3-0.9l0.4-0.1l-0.3-1.1l-0.3,0.1l-0.3-0.9l0.3-0.1l-0.3-1.1l-0.3,0.1l-0.3-0.8l0.4-0.1l-0.4-1.1l-0.3,0.1
			l-0.2-0.8l0.4-0.1l-0.4-1.1l-0.3,0.1l-0.1-0.3l0.4-0.1L74.7,54l-0.5,0.2l0-0.4l0.4,0l0-1.1l-0.4,0l0-0.5l0.2,0l0-1.2
			c1.5-0.1,1.8-1.6,1.5-2.8l-1,0c0,0.4,0.2,1.6-0.4,1.6l0-0.6l-0.8,0l0,0.5c-0.6-0.3-0.6-1.4-0.6-2l-5.1-0.1c0-2.3,0-4.6,0-6.8
			l-0.5,0l0-3.5L67.2,37.7z M73.8,53.9l0,0.4l-0.1,0L73.8,53.9z M73.8,54.7l-0.2,0l0.1-0.3L73.8,54.7z M74.2,56.8l0-0.6l0.2,0.6
			L74.2,56.8z M74.5,62.1l0-1.1l-1.1,0l0,1.1l0.4,0l0,1l-0.3,0l0,1.1l0.4,0l0,1l-0.3,0l0,1.1l0.3,0l0,1l-0.4,0l0,1.1l0.4,0l0,1
			l-0.3,0l0,1.1l0.3,0l0,1.2l0.5,0l0-1.2l0.3,0l0-1.1l-0.4,0l0-1l0.3,0l0-1.1l-0.3,0l0-1l0.3,0l0-1.1l-0.4,0l0-1l0.3,0l0-1.1l-0.4,0
			l0-1L74.5,62.1z M74.7,72.6l0-1.1l-1.1,0l0,1.1l0.4,0l0,1l-0.3,0l0,1.1l0.3,0l0,0.6l-0.3,0l0,1.1l0.3,0l0,1l-0.3,0l0,1.1l0.3,0
			l0,0.9l0.5,0l0-0.9l0.3,0l0-1.1l-0.3,0l0-1l0.4,0l0-1.1l-0.3,0l0-0.6l0.3,0l0-1.1l-0.3,0l0-1L74.7,72.6z M79.4,70.9L79,69.8
			L78,70.1l0.3,1.1l0.3-0.1l0.3,0.9l-0.3,0.1l0.3,1.1l0.3-0.1l0.3,0.8L79,74.1l0.3,1.1l0.3-0.1l0.3,0.8l0.4-0.1l-0.3-0.8l0.3-0.1
			l-0.3-1.1l-0.3,0.1l-0.3-0.8l0.4-0.1l-0.3-1.1l-0.3,0.1L79,71L79.4,70.9z M58,52.9l-0.1,0l0.2-0.4L58,52.9z M57.7,53.3l0.1-0.3
			l0.1,0.3L57.7,53.3z M58.2,54.9l0.1,0.6l-0.2,0L58.2,54.9z M57.7,60.7l0.1-1.1l-1.1-0.1l-0.1,1.1l0.4,0.1l-0.1,1l-0.3,0l-0.1,1.1
			l0.4,0.1l-0.1,0.9l-0.3,0l-0.1,1.1l0.3,0l-0.1,1l-0.4,0L56,66.8l0.4,0l-0.1,1l-0.3,0l-0.1,1.1l0.3,0L56,69.8l-0.4,0l-0.1,1.1
			l0.4,0l-0.1,0.9l-0.3,0l-0.1,1.1l0.3,0l-0.1,0.8l-0.3,0L55,74.7l0.3,0l-0.1,0.9l-0.3,0l-0.1,1.1l0.3,0l-0.1,1l-0.3,0l-0.1,1.1
			l1.1,0.1l0.1-1.1l-0.3,0l0.1-1l0.3,0l0.1-1.1l-0.3,0l0.1-0.9l0.3,0l0.1-1.1l-0.3,0l0.1-0.8l0.3,0l0.1-1.1l-0.3,0l0.1-0.9l0.3,0
			l0.1-1.1l-0.3,0l0.1-0.9l0.3,0l0.1-1.1l-0.4-0.1l0.1-1l0.3,0l0.1-1.1l-0.3,0l0.1-1l0.3,0l0.1-1.1l-0.4-0.1l0.1-0.9l0.3,0l0.1-1.1
			l-0.4,0l0.1-1L57.7,60.7z M68.1,49.4l0-1.5l4.9,0.1c0,1.5,0.6,1.8,0.8,1.8l0,0.7c-0.8-0.1-1.1-0.9-1.1-1.1
			C72.5,49.4,68.7,49.4,68.1,49.4 M65.4,47.8v1.4L60.3,49c-0.4,0-0.6,0.6-1.3,0.6l0-0.7c0.7-0.1,0.8-0.8,0.9-1.3L65.4,47.8z
			 M57.3,46.9c-0.1,1.5,0.6,1.8,0.9,1.9l0,0.7c-0.4-0.1-1.5-0.5-1.4-2.6L57.3,46.9z M74.6,49.9c0.7,0,0.7-1.1,0.6-1.6h0.7
			c0.1,0.4,0.3,2.3-1.4,2.5L74.6,49.9z M73.9,49.3l0.5,0l0,2.6l-0.3,0l-0.3,0L73.9,49.3z M58.4,48.3l0.5,0l0,2.6l-0.5,0L58.4,48.3z"
			/>
		<path id="XMLID_1708_" class="st4" d="M83,51.3c-2.3,1.9-5.1,3.9-7.7,5.7l0.2,0.5l0.3-0.1l0.4,1.1l-0.4,0.1l0.3,0.8l0.3-0.1
			l0.3,1.1l-0.3,0.1l0.3,0.9l0.3-0.1l0.3,1.1l-0.4,0.1l0.3,0.9l0.3-0.1l0.3,1.1l-0.3,0.1l0.3,1l0.3-0.1l0.3,1.1l-0.4,0.1l0.3,0.9
			l0.3-0.1l0.3,1c3.3-1.7,6.2-4.2,7.5-6.4C88.5,58.2,89,48.4,83,51.3"/>
		<path id="XMLID_1705_" class="st4" d="M115.4,60.7 M96.5,53c4.8,3.4,10,4.5,14.7,11.5c1.7-1.4,3-2.5,4.2-3.8
			c-8.4-4-2.8-8.4-5.6-19.1c-1.2,0.5-1.1,1.2-7.6,1.2c-1,0.1-2.5-0.8-3.7-0.2c-0.9,0.4-1.4,2.4,0,3.2c1.2,0.6,3.4,1.2,6.8-0.1
			c-1.6,0.9-3.2,1-3.9,2C100.3,49.2,100.5,52.2,96.5,53"/>
		<path id="XMLID_1702_" class="st4" d="M105.7,33.4c-0.9,0-3.1,0.4-4.8,0.4c-0.7,0-1.3-0.6-1.8-0.6c-0.7,0-1.3,0.2-2,0.5
			c0.3-0.3,1-0.7,1.9-0.7c0.5,0,1,0.1,2.2,0.2c1.6,0.1,3.9-0.2,4.6-0.2c1,0.1,2.9,0.7,6.7,2.4C110.3,34.8,107.7,33.7,105.7,33.4
			 M106.1,32.3c-0.7-0.2-1.7,0-2.9,0.1c-2.6,0.2-3.9-0.3-5.4,0.2c-0.7,0.3-0.9,1.8-1.7,2.6c-0.3,0.3-1.1,6.2,0.5-0.3
			c0.1-0.6,0.5-1.1,1.1-1.2c0.4-0.1,1.4,0.2,1.8,0.4c1.7,0.7,4.3,0,6.1,0.1c0.8,0,3.5,0.3,5.7,1.1c2.5,0.9,3.7,3.2,5.3,5.3
			c0.2-1.5-2.4-3.9-3.7-5.5C108.1,33.2,107.5,32.6,106.1,32.3"/>
		<path id="XMLID_1701_" class="st4" d="M97.6,32.4c0.8-0.6,4.1-1,8-0.4c1.8,0.3,3.8,1.6,6.8,2.7c-1.8-1.5-7.2-3.6-9.3-3.8
			c-2.7-0.2-5.5,0-7.1,2.4c-0.4,0.7-0.7,1.1-0.7,1.9C97.1,33.5,96.7,32.9,97.6,32.4"/>
		<path id="XMLID_1700_" class="st4" d="M95.7,30.4c0.6-0.6,0.8-1.1,1-2.2c0.4-0.4,2.3-0.5,2.6-1.4c-3.2,0.5-4.1,2.5-4.2,5.5
			C95.5,32,95.4,31,95.7,30.4"/>
		<path id="XMLID_1699_" class="st4" d="M94.9,32.8c0-2.1,0.4-3.5,1.2-4.5c0.8-1,1.9-1.5,3.3-1.7v0c0-0.6-1.4-0.1-2.6,0.5
			c-2.1,0.9-2.3,5.9-1.8,7.8C94.8,34.4,94.8,33.4,94.9,32.8"/>
		<path id="XMLID_1696_" class="st4" d="M99.8,25.6 M94.7,30.4c0.5-3.9,4.1-4.8,4.8-4c0-0.3,0.2-0.5,0.4-0.7
			c0.4-0.5-5.7,0.1-5.5,6.3c0,1,0.1,1.9,0.4,2.6C94.4,33.1,94.4,31.7,94.7,30.4"/>
		<path id="XMLID_1695_" class="st4" d="M106.4,28.6c0.6,2.5,3.2,4,5.2,5.3c-1.6-1.9-4-3.3-5.2-6c-1.4-0.4-2.8-0.9-3.4-2.3
			c-1.1,0.3-2.9-0.4-3.4,0.9l0,0.1c1,0.1,1.9-0.2,2.5-0.4c0.4-0.1,0.7-0.2,0.8-0.1c1.1,1.9,2.3,1.9,3.2,2.1c-1.6,0.2-2.6-0.7-3.4-2
			c0,0-0.3,0-0.6,0.2c-0.6,0.2-1.5,0.5-2.6,0.4c0.4,1.1,2.4,0.1,3.2-0.1C103.6,28.5,104.6,28.8,106.4,28.6"/>
		<path id="XMLID_1692_" class="st4" d="M109.7,30.8 M106.8,27.8c1.5,3.1,3.8,4.1,5.2,6.4c0.1,0.1,0.2,0.2,0.3,0.2
			c-0.5-1.5-1.5-2.5-2.5-3.6c-0.9-0.9-1.9-1.8-2.6-3.2c-0.5-0.2-3.4-1.5-3.7-2.6c1.1,1.1,2.4,1.9,3.8,2.4c0.7,1.3,1.5,2.2,2.6,3.3
			c1.1,1.1,2.2,2.1,2.7,3.9c0.1,0.1,0.2,0.2,0.3,0.3c0-3.2-4.6-5.4-5.2-7.7c-1.5-0.6-2.8-1-4-2.1c-0.9-0.6-3.2,0.5-3.4,0.5l0,0
			c-0.3,0.2-0.5,0.4-0.6,0.7c0.4-0.8,1.4-0.8,2.4-0.8c0.9,0,1-0.3,1.3-0.2C103.7,25.9,104.4,27,106.8,27.8"/>
		<path id="XMLID_1691_" class="st4" d="M107.8,26.9c0.7,2.4,6,5.4,5.2,8.1c0.2,0.1,0.3,0.2,0.4,0.4c0.3-2.5-1.2-4-2.8-5.6
			c-1-1-2.1-2-2.7-3.4c-2.8-0.4-4.1-3.6-7.4-1.2c0.3-0.1,2.1-0.9,3.2-0.5C105,25.9,106.3,26.3,107.8,26.9"/>
		<path id="XMLID_1688_" class="st4" d="M113.5,35.5 M110.7,29.6c1.7,1.6,3.2,3.2,2.8,5.8c0.1,0.1,0.2,0.2,0.4,0.4
			c0.8-5.4-4.3-6.4-5.5-9.4c-0.1,0-0.2,0-0.3,0C108.7,27.7,109.7,28.7,110.7,29.6"/>
		<path id="XMLID_1685_" class="st4" d="M112.9,29.3 M111.2,28c0.3,1.2,5.6,3.7,4.3,9.7c0.2,0.2,0.3,0.4,0.5,0.6
			c0.2-1.7,0-3.3-0.5-4.6c-0.7-2.2-2-3.7-2.7-4.4C112.3,28.8,111.8,28.4,111.2,28"/>
		<path id="XMLID_1684_" class="st4" d="M114.5,31c1.4,2.2,2.1,4.8,1.7,7.5l0.5,0.6C116.9,35.7,116.1,33.1,114.5,31"/>
		<path id="XMLID_1679_" class="st4" d="M109.7,38.5c-0.3-0.1-0.1-2.9-0.4-2.9c-0.3,0-1.7-0.8-3.6-0.9c-3.6,0.3-4.6,1.4-6.7-0.2
			c-0.7-0.5-1-0.6-1.4-0.5c-1.2,0.4-0.8,3.3-2,4.9c0.5,1.4,0.3,4.8,1.4,3.3c0.2-0.2,1.3-2.4,3.8-1.2c-4-0.8-4.1,3.1-3.7,3.5
			c0.1-1,0.5-2,1.2-2.2c1.7-0.6,3.4,0.6,4.4,0.4c3.5-0.2,7.8,0.5,6.8-3.3c0.9,0,1.3-0.8,1.5-1.5c0.1-0.4,0.2-0.8,0.4-1
			c-1-0.7-0.4,2.2-1.7,1.7c0.7-0.9,0.4-2.4,1.2-2.1C109.7,35.5,110.3,37.8,109.7,38.5 M101.8,39.4c-0.2,0-0.6,0.3-0.8,0.3
			c-1.1,0-2.1-0.1-2.6,0.2c-0.5,0.3-1,0.8-0.9,1.7c0.3-1.3,0.9-1.2,1.2-1.3c0.7-0.5,1.5-0.5,2.4-0.5
			C101.2,39.7,101.5,39.5,101.8,39.4 M98.6,38.3c0.8-0.1,2.4,0.3,3.1,0.9c-0.5,0.1-1.1,0-1.6-0.1c-1-0.1-2-0.1-2.7,1.6
			c-0.3-0.1,0.2-1.6,0.4-1.9c0.1-0.1,0.4,0,0.5,0C98.3,38.6,98.3,38.3,98.6,38.3 M98,36.6c0,0.5,1,0.3,0.1,0.8
			c-0.8,0.5-0.4-1-0.8-0.4c-0.1,0.1-0.2,0.6-0.1,0.8c0.1,0.1,0.1,0.2,0.1,0.2c-0.1,0.1-0.3,0.2-0.5,0.1c-0.4-0.2-0.2-1.1-0.2-1.5
			c0.1-0.4-0.1-0.9,0.3-1.1c0.3-0.2,0.7,0,1.2,0.1c0.6,0.2,1.1,0,1.5,0.3c0.6,0.6,0.5,1.1-0.3,1.1c0.1-0.3-0.2-0.5-0.7-0.4
			C98.4,36.7,98,36.5,98,36.6"/>
		<path id="XMLID_1678_" class="st4" d="M111.8,37c2.6,2.2,2.9,5.4,4.2,5.2c0.1,0,0.2-0.2,0.3-0.4c0.1-0.8-4.6-5.5-6.3-6.3
			C110.7,35.8,111.3,36.4,111.8,37"/>
		<path id="XMLID_1677_" class="st4" d="M111.2,35.6c1.7,1.6,3.9,3.8,5.2,5.6l0.1-0.5C115.1,38.8,112.7,36.4,111.2,35.6"/>
		<path id="XMLID_1674_" class="st4" d="M109.9,27.2 M114.2,36.1c-0.1,0,0.1,0.2,0.4,0.6c0.7-3.5-1.2-5.4-2.5-6.8
			c-0.2-0.3-0.5-0.5-0.7-0.7c-0.6-0.5-1.4-1.2-1.5-2c-0.4-0.2-0.8-0.5-1.3-0.7C110,29.3,115.2,30.5,114.2,36.1"/>
		<path id="XMLID_1673_" class="st4" d="M112.3,29.8c1.3,1.4,3.3,3.5,2.5,7.1l0.6,0.7c0.8-6.5-4.2-8.1-4.4-9.7
			c-0.3-0.2-0.5-0.4-0.8-0.5c0.2,0.7,0.9,1.3,1.5,1.8C111.8,29.3,112,29.5,112.3,29.8"/>
		<path id="XMLID_1672_" class="st4" d="M112,37.8c-0.3-0.1-0.5-0.2-0.7,0c-0.2,0.7-0.4,1.6-1.3,1.7l0,0.2
			C111,39.4,111.7,38.8,112,37.8"/>
		<path id="XMLID_1671_" class="st4" d="M112.1,37.9c-0.4,1.1-1,1.7-2.1,2l0,0.2c0.8,0,2.4-0.9,2.6-1.7
			C112.5,38.2,112.3,38,112.1,37.9"/>
		<path id="XMLID_1670_" class="st4" d="M113,38.7c-0.4,0.8-2,1.5-2.9,1.5l0,0.1c1.4,0.3,2.3-0.1,3.2-1.2
			C113.2,39.1,113.1,38.9,113,38.7"/>
		<path id="XMLID_1669_" class="st4" d="M113.4,39.4c-0.9,1.1-1.9,1.4-3.3,1.2l0,0.1l0,0c1.2,0.9,2.5,0.3,3.4-0.7
			C113.6,39.9,113.5,39.5,113.4,39.4"/>
		<path id="XMLID_1668_" class="st4" d="M113.9,40.6c-0.1-1.1-1.3,1.9-3.7,0.3c0,0.1,0.1,0.3,0.2,0.4c1.1,0.4,2.6,0.5,3.6-0.2
			C113.9,41,113.9,40.8,113.9,40.6"/>
		<path id="XMLID_1667_" class="st4" d="M114,41.3c-1,0.6-2.4,0.6-3.5,0.2c0.1,0.1,0.1,0.2,0.2,0.3c1.2,0.4,2.3,0.6,3.6,0.1
			C114.1,41.7,114,41.5,114,41.3"/>
		<path id="XMLID_1666_" class="st4" d="M114.4,42.1c-1.2,0.5-2.2,0.4-3.4,0c1,0.8,2.1,1,4.9,0.5C115.4,42.6,114.7,42.5,114.4,42.1"
			/>
		<path id="XMLID_1665_" class="st4" d="M116.6,42.7c-0.1-0.4-2.1,1.3-5.7,0C112.8,43.6,114.8,44,116.6,42.7"/>
		<path id="XMLID_1664_" class="st4" d="M116.6,42.9c-1.9,1.4-4.1,0.8-6-0.1l0.1,0.2c1.9,1.1,3.9,1.8,6,0.6
			C116.7,43.4,116.7,43.2,116.6,42.9"/>
		<path id="XMLID_1663_" class="st4" d="M116.7,43.8c-1.9,1.1-3.8,0.5-5.6-0.5C112.4,44.8,116.2,45.6,116.7,43.8"/>
		<path id="XMLID_1662_" class="st4" d="M116.3,44.9c-2.6,1-4.6-0.4-5.3-1.2c0,0.1,0.1,0.2,0.1,0.3c1.3,1,3.7,2.7,5.3,1.7
			C116.4,45.4,116.4,45.2,116.3,44.9"/>
		<path id="XMLID_1661_" class="st4" d="M116.5,45.8c-1.7,1-4-0.6-5.3-1.6l0,0.1c1.2,1.2,3.3,2.9,5.2,2.4
			C116.4,46.4,116.5,46.1,116.5,45.8"/>
		<path id="XMLID_1660_" class="st4" d="M116.3,46.9c-1.8,0.4-3.8-1.1-5.1-2.3c0.3,0.6,2.4,3.2,4.9,2.7
			C116.2,47.2,116.2,47.1,116.3,46.9"/>
		<path id="XMLID_1659_" class="st4" d="M116,47.6c-2.2,0.8-4.3-1.7-4.7-2.8c0,0.3,0.1,0.5,0.1,0.8c1,1.4,2.3,2.6,4.1,2.6
			C115.6,48,115.8,47.8,116,47.6"/>
		<path id="XMLID_1658_" class="st4" d="M115.3,48.4c-1.7,0-2.9-1.1-3.9-2.4c0,0.2,0,0.4,0.1,0.5c0.7,1.2,1.9,2.4,3.4,2.2
			C115,48.6,115.1,48.5,115.3,48.4"/>
		<path id="XMLID_1657_" class="st4" d="M114.6,48.9c-1.3,0-2.4-0.9-3.1-2c0.3,1.2,0.9,2.2,2.8,2.3
			C114.5,49.2,114.5,49.1,114.6,48.9"/>
		<path id="XMLID_1654_" class="st4" d="M112.4,49.8 M114.2,49.7c-2.3,0-2.4-1.6-2.8-2.2l0,0.8c0.2,0.6,0.5,1.2,1.1,1.6
			c0.4,0.3,0.9,0.5,1.4,0.3C114,50,114.1,49.8,114.2,49.7"/>
		<path id="XMLID_1653_" class="st4" d="M112.3,50c-0.4-0.3-0.7-0.7-1-1.2l0,0.6c0.3,0.9,1.6,2,2.4,1
			C113.2,50.4,112.8,50.3,112.3,50"/>
		<path id="XMLID_1650_" class="st4" d="M111.8,51.2 M113.2,51c-0.9,0-1.5-0.4-1.9-1.1l0,0.6c0.1,0.3,0.3,0.5,0.5,0.7
			c0.2,0.2,0.5,0.3,0.7,0.4C112.7,51.4,113,51.2,113.2,51"/>
		<path id="XMLID_1647_" class="st4" d="M111.3,50.8 M112.3,51.7c-0.4-0.1-0.8-0.5-1-0.8c0,0.5,0,0.9,0,1.4
			C111.6,52.1,112,51.9,112.3,51.7"/>
		<path id="XMLID_1646_" class="st4" d="M112.2,69.6c-1.8-0.4-2.6-4.4-2.9-5.4c-0.2-0.4-0.5-0.7-0.7-1c1.3,4.1,2.7,10.8,4.2,10.5
			c1.2,0,3.9-7.8,5.3-12.6l0.1,0C115.8,59.6,116.3,69.7,112.2,69.6"/>
		<path id="XMLID_1645_" class="st4" d="M109.5,64.5c0.8,1.8,1.7,4.3,2.8,4.1c1-0.3,4.6-6.1,3.8-7.5c-0.1-0.2-0.3-0.1-0.9,0.4
			c-2.2,2.7-2.7,4-4.1,4.9C110.7,65.6,110,65.1,109.5,64.5"/>
		<path id="XMLID_1644_" class="st4" d="M125.7,83c-0.3,0.2-0.8,0.4-1.3,0.5c-0.9,0.2-1.7,0.4-1.6,1.5c0.3,0.9,1,0.9,1.8,0.4
			c0.6-0.4,1.3-0.5,1.8-0.1L125.7,83z"/>
		<path id="XMLID_1643_" class="st4" d="M120.7,61.8l5.5,19.2c0.2,0.5,0.1,1,0,1.3c0,0.1,0.1,2,0.5,3.3l0,0c0.3,1.1-0.2,1.7-0.9,2.4
			c-1.3,1.2-1.3,2.8-1.3,3.6c2.4,4,2.8,7.9,3.5,11.6c0.3,1.2,0.7,2.4,1.1,3.6c1.5,4.8,4.4,17.6,5.6,18.1c0,0-0.5,2.1-0.2,2.5
			c1.3,1.6,5.1,5.7,5.1,5.8c0.8,0.9,0.8,1.1,0.9,1.7c0.1,0.5,0.2,1,0.1,1.6c-0.1,0.4-0.9,0.6-0.4,1.4l1.2-0.9l0.7-1.2l0-1.8
			c0.4,0.1,0.8-0.1,0.9-0.6c0.5,0,0.8-0.2,0.7-0.9c1.6,0.1-2.1-5.3-4.1-6.9c-2.5-11.6-0.3-17.5-6.2-29.4c-1.3-2.5-3.1-12.2-3.6-14.8
			C128.6,76.9,126.2,65.3,120.7,61.8"/>
		<path id="XMLID_1640_" class="st4" d="M119.9,71.6 M118.8,84.8c1.1-10.1,3.9-6.4,2.1-16.7c1,1.7,1.7,3.4,1.7,5.3
			C122.6,76.2,119.9,81.8,118.8,84.8c0.1,0.2,0.1,0.3,0.1,0.5c-0.2,2-3.8,0.5-4.4,0.7c0.5,0.3,1,0.5,1.5,0.9
			c1.5,0.6,3.4,0.3,4.3,0.4c0,0.1,1.2-7.7,1.1-7.5c-0.7,7.4-0.5,7.7-0.4,7.8c0.5,1-1.2,1.4-0.9,1.9c0.5,0.3,0.9-0.4,1.3-0.4
			c0.1,0,0-5.7,0.1-5.6c0.1,0.1,0.3,5.9,0.3,5.9c0.4,0.7-1.4,1.8-0.9,2.1c0.5,0.3,0.9-0.7,1.4-0.8c0.1,0-0.2-4.5-0.2-4.4
			c0.1,0,0.5,4.6,0.6,4.7c0.5,1.2-2.2,1.3-1.7,2.1c0.9,0.7,1.5-1,2.2-0.6c0.1,0.1-0.4-3.3-0.3-3.2c0.1,0.1,0.7,3.7,0.8,3.8
			c0.5,1.7-2.3,1.9-1.5,3c0.9,0.8,1.4,0.1,2,0.1c0.1,0-0.3-3.1-0.2-3c0.1,0.1,0.7,3.2,0.9,3.4c0.8,1.6-1.6,2.7-0.9,3.4
			c0.2,0.2,0.5-0.3,0.7-0.5c0.2-0.3,0.5-0.4,0.8-0.3c0.1,0-0.2-2.1-0.2-2.1c0.1,0.1,0.5,2.4,0.5,2.5c0.2,0.8-1.3,1.2-1,1.8
			c0.7,0.6,0.9-0.4,1.4-0.4c0.1,0-0.4-2-0.3-2c0.1,0,0.6,2.1,0.7,2.2c0.9,1.2-1,1.3-0.8,2.1c0.5,0.7,0.9-0.5,1.6,0.1
			c-0.7-5.4-7.3-18.5-4.9-28.8c-0.1,0.5-0.1,1.1-0.2,1.6c0.4-0.3,1.2-0.8,1.6-0.1c0.6,1.6-1.3,1.9-1.2,2.7c0,0.6,1.5-0.6,1.8,0.1
			c-0.8-3.3-4-17.9-6.5-18c-0.1,2.4-2.8,14.2-5.5,14.1c-1.7-0.2-3.1-7.2-4.4-12.5c-0.5-0.7-1.1-1.4-1.6-2c2.4,8.2,5.9,22.4,7.5,22.4
			c1.1-0.5,5.4-8.6,5.7-11.5c0,4.2-6.8,13.2-4.4,13.1C116.3,84.7,118.4,83.9,118.8,84.8"/>
		<path id="XMLID_1639_" class="st4" d="M124.9,79.4c0.1,0.3,0.2,1-1.5,1.9c-0.3,0.1-0.6,0.4-0.5,0.5c0.7,0.7,1.6-1.6,3-1l-1.3-4.5
			L124.9,79.4z"/>
		<path id="XMLID_1635_" class="st4" d="M111.8,81.3c-2.1-2.1-6.1-10.7-6.5-14.4C108.8,70.1,108.3,76.6,111.8,81.3 M110.5,83.5
			c-1.5-1.1-4.9-7.1-4.5-8.7C107.1,79.8,110,81.3,110.5,83.5 M112.8,83.8l-6.4-23.5c-2.3-2.3-9.4-6.6-9.6-5.3
			c-1.4,13.6-3,15,4.1,27.9c0.6-0.4,1.6,0.1,2.6,1.2c0.2-3.2-6.5-11.1-7.3-18.6c2,6.1,5.2,11.4,8.3,16.7c1.3-0.3,1.7,1.4,1.9,1.5
			c0.1-0.1,0-0.9,0.5-1.2c-1-2.9-2.9-5.8-4.3-8.7c-0.2-0.5-3.6-7.1-3.7-7.6c-0.3-0.8,2.5,3.8,2.5,3.8c-0.3-1.6-0.9-8.7,0.4-10.9
			c-0.4,10.9,3.3,14.2,5.6,23c1.4-0.7,2.1,0.7,3.1,1.3C110.6,82,112,82.3,112.8,83.8"/>
		<path id="XMLID_1634_" class="st4" d="M100.5,85c-2.6-4.9-5.1-10.4-5.2-14.6c0-0.4-0.6,1.6-0.7,2.6l-1,0.9c0.9,3,1.9,8.7,3.9,9.1
			C98.4,83.2,99.2,84.6,100.5,85"/>
		<path id="XMLID_1633_" class="st4" d="M95.6,83.6c0,0-2-6.4-2.2-9.6l-1.1,0.9c0.3,1.6,2.3,10.5,2.5,10.4c0.5-0.2,1.2-0.3,1.9,0.1
			C96.4,84.9,95.6,84.2,95.6,83.6"/>
		<path id="XMLID_1632_" class="st4" d="M94.6,88c-1.6-1.1-2.3-10.8-2.4-13l-1.9,1.6l0.2,11.1C91.3,86.9,93.4,87.2,94.6,88"/>
		<path id="XMLID_1631_" class="st4" d="M89.7,87.9c-0.5-3.4,0.4-9.1,0.3-11.2l-0.9,0.7l-1.8,12.1c0.8-0.7,1.3-0.4,1.9,0.3
			c0.7,0.8,1.3,1.2,2.4,0.8C90.8,90.1,90,89.6,89.7,87.9"/>
		<path id="XMLID_1630_" class="st4" d="M87.2,89.8l-0.3-11.1L85.7,92c0.6-0.5,1.5,0.5,1.9,0.9c0.4,0.3,1.2,1.2,1.6,0.5
			c0.4-0.6-1.1-1.6-1.6-2C87.3,90.9,86.9,90.4,87.2,89.8"/>
		<path id="XMLID_1629_" class="st4" d="M87.2,95.4c-0.5-0.7-1.9-2.5-1.6-3.2l-0.4-12.9c-0.8,4.1-0.9,9.9,0,16.1
			c0-0.2,0.1-0.3,0.3-0.4C85.9,94.6,86.8,95.1,87.2,95.4"/>
		<path id="XMLID_1628_" class="st4" d="M85.2,95.3c-1.3-4-1.6-8.6-1.3-15c-0.8,5.3-0.7,8.2-0.7,13.7c1.3-0.8,2,3.1,3,3.8
			C85.9,97.3,85,96.1,85.2,95.3"/>
		<path id="XMLID_1627_" class="st4" d="M86.1,101.2c-2.3-3.7-4.6-6.2-4.7-10.2c0-4.3,1.2-7.4,2.5-11.4c0-0.4-0.4-0.7-0.8-1
			c-0.1,0.8-0.5,1.5-1.1,2.2c-0.7,2.6-5.5,14.5-0.5,16.8c1,0.4,2,0.9,2.7,3.4c1.1,3.7,0.6,7-4.2,8c-1.5,0.3-2.5,0.8-2.5,2.4
			c0,1.4,0.9,2.1,2.1,2.3c1.8,0.4,3,1.1,3.1,3.2c-0.2,2.9-1.9,3.5-3.4,4c-1.6,0.5-2.9,1-2.6,3.9c0.5,1.3,1.3,2,2.1,2.6
			c0.6,0.5,1.9,1.1,2.3,3.2C81.1,128.8,84,106.4,86.1,101.2"/>
		<path id="XMLID_1626_" class="st4" d="M94.8,89.4c-0.3,0.3,7.5-3.7,14.3-2.6c3.7,0.6,8.5,3.2,11,7.9c0.1,0.2-0.4-2.9-0.4-2.9
			c-0.5-1.2-2-2.4-3.4-3.6c-2.5-2.2-6.4-3.3-10-3.2C102.4,85,97.7,86.4,94.8,89.4"/>
		<path id="XMLID_1625_" class="st4" d="M81,76.1c0.3,0.1,0.5,0.3,0.8,0.4l0.8-8.5C81.8,69.7,81.1,73.2,81,76.1"/>
		<path id="XMLID_1624_" class="st4" d="M86.4,63.8c-3.6,4.6-3.3,4.5-4.4,12.6c0.8-0.6,1.8,0.7,2.4,1.2c0.9,0.6,2.1,0.2,0.8-0.9
			C81,75.4,85.1,67.3,86.4,63.8"/>
		<path id="XMLID_1623_" class="st4" d="M86.9,63.1c-0.9,2.2-3.5,9.3-2.9,11.5c0.1-0.4,0.5-0.8,1-0.7c-0.3-1.6,0.7-4.9,1.9-8.6
			c2.3-6.7,2-7.7,2-8.7c-0.1,2.4-1.6,5.8-1.8,6.2L86.9,63.1z"/>
		<path id="XMLID_1622_" class="st4" d="M89.6,53.3c0.7,4.9-6.2,22.1-1.8,23c-0.8-6.6,0.6-11.8,1.7-16c1-3.6,1.7-6.5,0.8-8.9
			c-0.9-2.2-2-2.2-4.2-1.8C88.5,49.6,89.5,51,89.6,53.3"/>
		<path id="XMLID_1621_" class="st4" d="M91.1,51c1.8,5.5-3.2,14.5-3.2,23.9c0.1-0.8,0.4-2.1,1.1-2.5c1-0.1,1.3,1.3,1.7,1.7
			c-0.8-3.5-0.7-6.5,1-13.2C92,59.3,94.4,51,91.1,51"/>
		<path id="XMLID_1620_" class="st4" d="M92.4,61.7c-1,3.9-2.1,7.7-1.9,10.7c0.1-0.3,0.2-0.4,0.3-0.6c1-0.1,0.6,1.2,1.1,1.6
			c0.3-5.5,1-9.7,1.7-12.2c0.6-2.3,0.9-3.3,1.2-7c0.1-1.4-1.1-2.8-1.3-1.4C93.4,54.2,93.6,57.2,92.4,61.7"/>
		<path id="XMLID_1619_" class="st4" d="M95.3,56.2c-1,6.7-1.9,9.6-2.8,16.2c1.1-1.7,1.2,0,1.9,0.5c0.7-6.5-0.4-9.7,1.7-17.7
			c0.4-1.5-0.5-2.4-0.6-1.8C95.4,54,95.5,55,95.3,56.2"/>
		<path id="XMLID_1618_" class="st4" d="M95.6,32.8c1.7-2.4,4.5-2.9,7.4-2.7c2.4,0.2,5,1.6,6.5,2.8c0.1,0,0.2,0.1,0.3,0.1
			c-1.4-1-3.3-2.2-3.8-3.9c-1.4,0.1-2.9-0.6-3.5-1.9c-0.8,0.3-2.7,1-3.1-0.3c-0.2,1.3-1.8,1.1-2.5,1.6c-0.1,0.7-0.4,1.6-1.1,2
			c-0.3,0.6-0.2,1.7-0.8,2.2c-0.2,0.7-0.2,1.3-0.1,1.9C95,34.7,94.9,33.7,95.6,32.8"/>
	</g>
</g>
</svg>
