<?xml version="1.0" encoding="utf-8"?>
<!-- Generator: Adobe Illustrator 16.0.0, SVG Export Plug-In . SVG Version: 6.00 Build 0)  -->
<!DOCTYPE svg PUBLIC "-//W3C//DTD SVG 1.1//EN" "http://www.w3.org/Graphics/SVG/1.1/DTD/svg11.dtd">
<svg version="1.1" id="Layer_1" xmlns="http://www.w3.org/2000/svg" xmlns:xlink="http://www.w3.org/1999/xlink" x="0px" y="0px"
	 width="126px" height="130px" viewBox="0 0 126 130" enable-background="new 0 0 126 130" xml:space="preserve">
<g>
	<path fill="#3845B1" d="M19.506,59.365c0.478,1.267,1.006,2.503,1.584,3.708c7.673,16.008,23.917,26.371,41.913,26.371h1.511
		c17.75,0,33.694-10.428,40.908-26.371c0.545-1.205,1.04-2.442,1.482-3.708H19.506z M64.516,85.734h-1.512
		c-15.95,0-30.406-8.846-37.757-22.663h76.065C94.391,76.832,80.223,85.734,64.516,85.734z"/>
	<path fill="#3845B1" d="M0.955,105.102c0,1.262,0.098,2.5,0.286,3.709C3.023,120.248,12.922,129,24.866,129h76.268
		c11.944,0,21.843-8.752,23.625-20.189c0.188-1.209,0.286-2.447,0.286-3.709H0.955z M101.134,125.292H24.866
		c-9.889,0-18.119-7.103-19.861-16.481h115.99C119.253,118.189,111.023,125.292,101.134,125.292z"/>
	<path fill="#3845B1" d="M17.033,61.219c0-1.024,0.831-1.854,1.855-1.854h88.635c1.024,0,1.855,0.83,1.855,1.854
		c0,1.024-0.831,1.854-1.855,1.854H18.888C17.863,63.073,17.033,62.243,17.033,61.219z"/>
	<path fill="#3845B1" d="M50.426,106.75V86.561h3.71v20.189H50.426z"/>
	<path fill="#3845B1" d="M72.275,106.75V86.561h3.711v20.189H72.275z"/>
	<path fill="#3845B1" d="M37.992,4.781c-12.133-0.94-25.11,7.349-27.572,25.314c-0.139,1.015-1.075,1.725-2.09,1.585
		c-1.015-0.139-1.726-1.074-1.586-2.088C9.459,9.775,24.094-0.016,38.278,1.083c14.25,1.104,27.383,13.109,27.383,35.293v22.43
		c0,0-1.854,0-3.71,0V36.377C61.951,15.868,50.059,5.715,37.992,4.781z"/>
	<path fill="#3845B1" d="M44.865,22.854c-8.592-0.363-17.6,5.605-18.674,18.271c-0.087,1.021-0.984,1.777-2.005,1.691
		s-1.778-0.984-1.692-2.004c1.244-14.665,11.968-22.109,22.528-21.663c5.247,0.222,10.432,2.394,14.301,6.547
		c3.881,4.165,6.338,10.21,6.338,18v15.196c0,0-0.372,0-0.948,0c-0.268,0.15-0.578,0.236-0.906,0.236
		c-0.331,0-0.64-0.086-0.908-0.237c-0.31,0-0.629,0-0.948,0V43.696c0-6.985-2.187-12.086-5.343-15.473
		C53.441,24.824,49.194,23.037,44.865,22.854z"/>
	<path fill="#3845B1" d="M46.285,43.817c-1.685,1.563-2.886,3.953-2.886,7.312c0,1.024-0.831,1.854-1.855,1.854
		s-1.855-0.83-1.855-1.854c0-4.32,1.581-7.718,4.071-10.029c2.461-2.285,5.706-3.412,8.906-3.428s6.452,1.078,8.922,3.362
		c2.498,2.31,4.074,5.726,4.074,10.095v7.763h-0.194c-0.304,0.609-0.934,1.028-1.661,1.028c-0.727,0-1.356-0.419-1.661-1.028h-0.194
		v-7.764c0-3.423-1.207-5.822-2.883-7.373c-1.705-1.577-4.018-2.388-6.383-2.376C50.318,41.393,47.997,42.228,46.285,43.817z"/>
	<path fill="#3845B1" d="M87.971,5.604c12.133-0.94,25.11,7.35,27.572,25.314c0.139,1.015,1.075,1.725,2.09,1.585
		c1.016-0.139,1.725-1.074,1.586-2.089c-2.715-19.816-17.35-29.607-31.535-28.508C73.434,3.01,60.302,15.015,60.302,37.199V59.63
		c0,0,1.855,0,3.71,0V37.201C64.012,16.691,75.902,6.54,87.971,5.604z"/>
	<path fill="#3845B1" d="M81.098,23.678c8.592-0.363,17.6,5.604,18.674,18.271c0.088,1.021,0.985,1.777,2.006,1.691
		c1.021-0.086,1.779-0.984,1.691-2.004c-1.242-14.664-11.967-22.108-22.527-21.663c-5.246,0.222-10.432,2.394-14.301,6.547
		c-3.882,4.165-6.338,10.21-6.338,18v15.197c0,0,0.371,0,0.948,0c0.268,0.151,0.578,0.237,0.907,0.237
		c0.329,0,0.639-0.086,0.908-0.237c0.31,0,0.628,0,0.947,0V44.52c0-6.985,2.188-12.085,5.344-15.472
		C72.521,25.648,76.768,23.861,81.098,23.678z"/>
	<path fill="#3845B1" d="M79.678,44.642c1.686,1.563,2.887,3.953,2.887,7.311c0,1.024,0.83,1.854,1.854,1.854
		s1.854-0.83,1.854-1.854c0-4.32-1.58-7.717-4.07-10.028c-2.462-2.285-5.707-3.412-8.906-3.428
		c-3.199-0.017-6.451,1.078-8.922,3.362c-2.498,2.31-4.074,5.726-4.074,10.094v7.764h0.194c0.304,0.609,0.934,1.028,1.661,1.028
		c0.727,0,1.358-0.418,1.663-1.028h0.193v-7.764c0-3.423,1.206-5.822,2.883-7.372c1.705-1.577,4.018-2.388,6.383-2.376
		C75.645,42.217,77.965,43.052,79.678,44.642z"/>
	<path fill="#3845B1" d="M63,27.165c1.593,0,2.887,1.292,2.887,2.884V58.48c0,1.593-1.294,2.884-2.887,2.884
		c-1.594,0-2.886-1.292-2.886-2.884V30.049C60.114,28.457,61.407,27.165,63,27.165z"/>
</g>
</svg>
